<svg xmlns="http://www.w3.org/2000/svg" xmlns:xlink="http://www.w3.org/1999/xlink" xmlns:lucid="lucid" width="425" height="723"><g transform="translate(-538.5 -298.5)" lucid:page-tab-id="0_0"><path d="M834.53 300c16.86 0 30.5 13.66 30.5 30.5 0 16.86-13.64 30.52-30.5 30.52H661.7c-16.84 0-30.5-13.66-30.5-30.5 0-16.86 13.66-30.52 30.5-30.52z" stroke="#e81313" stroke-width="3" fill="#fff"/><use xlink:href="#a" transform="matrix(1,0,0,1,636.1986200733553,305) translate(81.985 34.298)"/><path d="M742.2 462.77a21.68 21.68 0 0 1 15 0l174.7 64.46a2.95 2.95 0 0 1 0 5.54l-174.68 64.46a21.68 21.68 0 0 1-15.02 0l-174.7-64.46a2.95 2.95 0 0 1 0-5.54z" stroke="#e81313" stroke-width="3" fill="#fff"/><use xlink:href="#b" transform="matrix(1,0,0,1,565,465) translate(105.06933333333333 61.65198955555555)"/><use xlink:href="#c" transform="matrix(1,0,0,1,565,465) translate(180.51999999999998 61.65198955555555)"/><use xlink:href="#d" transform="matrix(1,0,0,1,565,465) translate(178.87733333333333 85.55867711111111)"/><path d="M749.7 364.02V439.32" stroke="#e81313" stroke-width="3" fill="none"/><path d="M751.18 364.06h-2.94v-1.54h2.94z" stroke="#e81313" stroke-width=".05" fill="#e81313"/><path d="M749.7 455.07l-4.63-14.26h9.27z" stroke="#e81313" stroke-width="3" fill="#e81313"/><path d="M936.86 530H950a12 12 0 0 0 12-12v-96.47a12 12 0 0 0-12-12H770.33" stroke="#333" stroke-width="3" fill="none"/><path d="M936.9 531.48h-1.83l.15-.4.13-1.08-.13-1.08-.15-.4h1.82z" stroke="#333" stroke-width=".05" fill="#333"/><path d="M754.56 409.53l14.27-4.63v9.27z" stroke="#333" stroke-width="3" fill="#333"/><use xlink:href="#e" transform="matrix(1,0,0,1,915.8579999999849,491.4979870086158) translate(0.004999999999999005 21.222)"/><path d="M729.95 411h-177.9l-1.7.14-1.6.38-1.53.64-1.4.86-1.26 1.07-1.07 1.25-.87 1.4-.64 1.53-.4 1.6-.13 1.7v586.36l.14 1.7.4 1.6.63 1.54.86 1.4 1.06 1.26 1.26 1.07 1.4.87 1.53.64 1.6.4 1.7.13h184.32l1.7-.14 1.6-.4 1.53-.63 1.4-.86 1.26-1.06 1.08-1.26.86-1.4.63-1.53.4-1.6.12-1.7V983h2.95v25.06l-.16 2.05-.5 2.06-.8 1.96-1.1 1.8-1.38 1.6-1.6 1.38-1.82 1.1-1.95.82-2.07.5-2.05.15H551.94l-2.05-.16-2.06-.48-1.96-.8-1.8-1.12-1.6-1.37-1.38-1.6-1.1-1.8-.82-1.97-.5-2.05-.15-2.04v-586.6l.16-2.04.48-2.06.8-1.95 1.12-1.8 1.37-1.6 1.6-1.38 1.8-1.1 1.97-.8 2.05-.5 2.04-.17h178z" stroke="#000" stroke-width=".05"/><path d="M749.9 983.04h-2.95v-1.54h2.95z"/><path stroke="#000" stroke-width=".05"/><path d="M745.7 409.53l-14.25 4.64v-9.28z"/><path d="M750.5 409.53l-20.53 6.67v-13.34zm-17.58 2.6l8.02-2.6-8.02-2.6z" stroke="#000" stroke-width=".05"/><path d="M742.08 701.4a25.3 25.3 0 0 1 15.26 0l174.45 55.17a2.53 2.53 0 0 1 0 4.82l-174.46 55.17a25.3 25.3 0 0 1-15.26 0L567.63 761.4a2.53 2.53 0 0 1 0-4.83z" stroke="#e81313" stroke-width="3" fill="#fff"/><use xlink:href="#f" transform="matrix(1,0,0,1,565,703.9786350026587) translate(102.78687220000002 63.195535066666665)"/><use xlink:href="#g" transform="matrix(1,0,0,1,565,703.9786350026587) translate(161.3467258 63.195535066666665)"/><use xlink:href="#h" transform="matrix(1,0,0,1,565,703.9786350026587) translate(255.5509347333333 63.195535066666665)"/><path d="M749.7 601.57v76.52" stroke="#e81313" stroke-width="3" fill="none"/><path d="M749.7 600.07l1.48-.05v1.6h-2.94V600z" stroke="#e81313" stroke-width=".05" fill="#e81313"/><path d="M749.7 693.86l-4.63-14.27h9.27z" stroke="#e81313" stroke-width="3" fill="#e81313"/><use xlink:href="#i" transform="matrix(1,0,0,1,757.7097692307692,597.1050456245312) translate(0.004999999999999005 21.222)"/><path d="M601.25 908a8 8 0 0 1 8-8h280.92a8 8 0 0 1 8 8v64a8 8 0 0 1-8 8H609.25a8 8 0 0 1-8-8z" stroke="#000" stroke-width="3" fill="#fff"/><use xlink:href="#j" transform="matrix(1,0,0,1,606.2482307692308,905) translate(50.557 43.298)"/><use xlink:href="#k" transform="matrix(1,0,0,1,606.2482307692308,905) translate(169.03300000000002 43.298)"/><path d="M751.18 877.88h-2.94v-17.7h2.94zm0-43.53h-2.94v-13.6h2.94z" stroke="#000" stroke-width=".05"/><path d="M749.7 819.24l1.48-.04v1.58h-2.94v-1.58z"/><path stroke="#000" stroke-width=".05"/><path d="M749.7 893.65l-4.63-14.27h9.27z"/><path d="M749.7 898.42l-6.66-20.5h13.34zm-2.6-17.56l2.6 8 2.62-8z" stroke="#000" stroke-width=".05"/><use xlink:href="#l" transform="matrix(1,0,0,1,730.4407692307692,834.3454709270856) translate(0.004999999999999005 21.222)"/><path d="M936.57 758.98h5.86a12 12 0 0 0 12-12V652a12 12 0 0 0-12-12H767.68" stroke="#e81313" stroke-width="3" fill="none"/><path d="M936.6 760.45h-1.84l.18-.46.13-1.02-.13-1-.18-.48h1.85z" stroke="#e81313" stroke-width=".05" fill="#e81313"/><path d="M754.5 641.95l13.45-6.68 1.35 9.18z" stroke="#e81313" stroke-width="3" fill="#e81313"/><g><use xlink:href="#m" transform="matrix(1,0,0,1,908.2915384615233,721.0819843989191) translate(0.004999999999999005 21.222)"/></g><defs><path d="M19-91c0-222 71-428 58-668-3-62 121-44 170-33 118 27 229 50 293 128 44 53 63 97 63 217 0 165-189 328-383 400-36 13-62 45-108 45-66 0-93-23-93-89zm185-582c-30 151-43 322-58 489 5 39 27 28 60 14 129-54 276-147 276-304 0-155-106-203-278-199" id="n"/><path d="M200-621c86-36 205-38 320-43 17-2 34-6 53-13 25-50-14-102-50-120-105-15-221 22-318 37-49 22-126 13-155 55-12 101 7 262-12 371C15-202-37 19 166-4c120-14 222-47 358-47 61 0 128-2 134-62 3-35-15-67-42-76-93 13-205 8-286 31-46 13-96 23-151 16-29-4-39-25-30-58 2-52 0-110 16-152 11-29 60-22 94-30 65-16 139-26 220-15 42 6 65-40 42-74-13-19-34-26-64-31-88-15-182 2-264 12-22-4-15-32-15-46 0-32 0-66 14-85h8zm218-545c39-2 66 47 43 84-18 28-32 54-49 77l1-1c-23 43-45 97-73 132-21 27-86 23-80-23-6-36 68-166 96-218 19-35 41-51 62-51" id="o"/><path d="M68-174c-8-157-1-333-1-488 0-23-21-28-12-60 24-87 141-85 256-77 161 12 317 42 251 258-5 17-40 45-44 60 15 30 85 80 98 123 62 108 25 192-76 258C455-45 341-9 207-4 145-2 19-30 19-85c0-36 51-41 49-89zm137-510c-18 6-26 137-16 192 30 22 66 2 112-6 70-13 158-95 159-132 17-68-169-82-255-54zm-15 330c-15 57-2 155 5 215 6 4 6 12 18 11 101-5 211-32 267-82 52-46 58-91 12-140s-73-73-81-73c-39 14-121 48-173 54-15 2-34 14-48 15" id="p"/><path d="M106-737c41-53 131 12 108 86-42 139-71 285-71 455 0 88 72 66 143 48 49-12 128-35 183-63 38-19 36-69 44-119 17-114 31-247 31-354 0-57 26-85 79-85 37 0 55 27 55 81 0 190-34 397-59 573 4 31 20 93-13 105-8 10-30 7-65-8-16-20-33-38-51-54C397-48 305 0 205 0 79 0 5-43 13-176c13-196 50-391 93-561" id="q"/><path d="M593-790c58 0 99 54 77 117-5 13-15 16-35 14-70-7-152-3-229 7-31 20-24 81-26 127-4 138-16 277-16 422 0 32 4 70-21 83-26 36-88 7-103-20 1-182 10-346 21-521 2-27 11-81-18-84-73-7-138 11-206 3-20-18-39-18-32-51-3-78 74-91 145-91 129 0 251 6 369-8 25-3 49 2 74 2" id="r"/><g id="a"><use transform="matrix(0.018,0,0,0.018,0,0)" xlink:href="#n"/><use transform="matrix(0.018,0,0,0.018,10.872,0)" xlink:href="#o"/><use transform="matrix(0.018,0,0,0.018,22.86,0)" xlink:href="#p"/><use transform="matrix(0.018,0,0,0.018,34.434,0)" xlink:href="#q"/><use transform="matrix(0.018,0,0,0.018,47.087999999999994,0)" xlink:href="#r"/></g><path d="M103-24C79 10-2-14 8-59c42-186 129-353 193-524 23-62 63-135 99-197 39-38 106-10 109 47 27 100 51 209 81 307 8 25 72 24 72 63 0 44-26 46-37 75 12 83 46 156 55 243 7 63-106 47-114 11-13-58-36-170-57-231-3-4-7-8-9-14-69 4-134 40-198 52-53 21-53 108-81 160-4 16-8 29-18 43zm215-551c-16 18-92 195-73 208 46 2 100-12 123-31-5-30-32-162-38-171-2-3-6-5-12-6" id="s"/><path d="M21-302C-7-136 9 24 196-12c147-28 263-93 386-142 57-23 26-120-26-120-111 32-240 115-378 126-13 1-22-26-25-45 30-174 59-350 88-524 10-62-86-124-120-61-39 73-49 196-69 277-19 77-22 145-31 199" id="t"/><path d="M103-24C79 10-2-14 8-59c42-186 129-353 193-524 23-62 63-135 99-197 39-38 106-10 109 47 27 100 51 209 81 307 8 25 72 24 72 63 0 44-26 46-37 75 12 83 46 156 55 243 7 63-106 47-114 11-13-58-36-170-57-231-3-4-7-8-9-14-69 4-134 40-198 52-53 21-53 108-81 160-4 16-8 29-18 43zm215-551c-16 18-92 195-73 208 46 2 100-12 123-31-5-30-32-162-38-171-2-3-6-5-12-6" id="u"/><path d="M608-642l-20 77c-36 56-69 94-113 138-49 48-58 40-29 81 33 46 69 89 97 147 44 89 52 141 40 147-3 38-20 49-63 52-68 5-97-106-129-160-40-68-56-162-144-164-53-1-27 78-45 121-7 56-12 123-28 170C157-4 113 24 66-1 46-11 40-39 49-87c19-111 19-139 19-313 0-144 1-187-40-242-27-37-13-94 26-108 103-36 250-59 389-41 63 8 182 85 165 149zm-140 11c-10-39-42-58-96-57-53 12-154 21-179 43-5 9-8 31-8 65 0 151 19 135 127 94 94-36 148-79 156-145" id="v"/><path d="M629-645c28 177 9 401 28 582 3 29-18 50-47 50-97 0-67-194-71-306-1-24-4-66-3-92 1-39-15-57-30-33-49 79-88 161-139 243-9 15-21 23-34 23-33 0-70-69-89-115-10-23-57-152-73-152-28 0-27 119-31 162-9 93-16 174-27 265-2 3-35 21-48 20-71-3-50-117-43-176 24-211 38-410 84-595 39-67 121 2 138 59 22 73 63 167 84 249 7 23 13 34 20 34 17 0 54-75 107-225 17-48 42-155 115-96 31 25 52 57 59 103" id="w"/><path d="M330-158c82-22 193-18 286-31 38 11 58 81 24 113-25 24-71 25-116 25-135 0-238 34-358 47C61 7 4-52 15-159c12-113 37-213 32-340-2-59 2-121-2-178-2-44 35-62 81-61 104-31 222-52 345-64 68-7 103 34 111 94 2 12-3 22-9 31-33 14-62 15-103 16-100 2-196 10-270 40h-8c-18 23-11 79-15 106-1 13 5 22 16 25 82-10 176-25 264-12 44 7 78 26 71 72-7 49-76 30-125 30-78 0-138 22-210 29-24 1-35 28-36 52-2 41-10 83-8 126-19 84 122 51 181 35" id="x"/><g id="b"><use transform="matrix(0.018666666666666668,0,0,0.018666666666666668,0,0)" xlink:href="#s"/><use transform="matrix(0.018666666666666668,0,0,0.018666666666666668,10.957333333333334,0)" xlink:href="#t"/><use transform="matrix(0.018666666666666668,0,0,0.018666666666666668,22.437333333333335,0)" xlink:href="#u"/><use transform="matrix(0.018666666666666668,0,0,0.018666666666666668,33.394666666666666,0)" xlink:href="#v"/><use transform="matrix(0.018666666666666668,0,0,0.018666666666666668,44.93066666666667,0)" xlink:href="#w"/><use transform="matrix(0.018666666666666668,0,0,0.018666666666666668,57.474666666666664,0)" xlink:href="#x"/></g><path d="M521-275c40-33 108-24 108 34 0 49-75 103-210 183-80 47-247 72-323 10-66-54-95-101-82-218 12-106 41-136 91-224 55-96 145-209 240-278 32-23 68-33 107-33 86 2 108 61 107 158 0 55-15 82-44 82-55 1-25-116-79-110-132 15-229 223-291 334-48 86-31 226 81 218 122-9 217-92 295-156" id="y"/><path d="M292-638c-67 2-113 14-176 21-81 9-112-68-58-103 132-46 304-52 470-66l65 5c50 52 43 111-50 111-45 0-75 15-112 18-18 16-19 83-24 152-7 108-21 214-33 322-5 46 36 20 67 20 54 0 81-10 139-16 43 25 50 62 23 110-151 29-311 50-490 79C58 24-8 22 3-44c14-83 161-45 224-90 22-16 24-69 29-107 17-126 33-258 36-397" id="z"/><path d="M109-735c-25-57-110-11-99 37 30 130 91 291 122 410 18 69 44 132 72 190 44 90 75 116 148 73 102-105 149-290 208-441 32-82 48-168 48-261 0-51-15-77-46-77-38 0-59 34-73 100-35 160-89 312-149 454-40 95-58 66-91-37-28-90-54-179-79-263-24-79-42-141-61-185" id="A"/><g id="c"><use transform="matrix(0.018666666666666668,0,0,0.018666666666666668,0,0)" xlink:href="#u"/><use transform="matrix(0.018666666666666668,0,0,0.018666666666666668,10.957333333333334,0)" xlink:href="#y"/><use transform="matrix(0.018666666666666668,0,0,0.018666666666666668,22.792,0)" xlink:href="#r"/><use transform="matrix(0.018666666666666668,0,0,0.018666666666666668,36.21333333333334,0)" xlink:href="#z"/><use transform="matrix(0.018666666666666668,0,0,0.018666666666666668,48.06666666666667,0)" xlink:href="#A"/><use transform="matrix(0.018666666666666668,0,0,0.018666666666666668,59.54666666666666,0)" xlink:href="#o"/><use transform="matrix(0.018666666666666668,0,0,0.018666666666666668,71.97866666666667,0)" xlink:href="#x"/></g><path d="M103-360c0-112 97-112 179-128 97-18 242-75 249-136 6-48-42-75-151-71-112 4-194 15-276 54-32 15-101 31-94-24 35-105 323-159 505-131 75 11 164 108 120 200-57 118-164 168-297 220-46 18-100 9-130 40-14 46-42 100-66 94-26 0-39-39-39-118zm112 214c60 54-29 135-88 135-48 0-65-33-51-98 18-31 37-56 89-54 19 0 36 5 50 17" id="B"/><use transform="matrix(0.018666666666666668,0,0,0.018666666666666668,0,0)" xlink:href="#B" id="d"/><path d="M24-128c0-158-18-313-5-472 6-74-11-192 62-191 78 1 88 68 113 130 59 143 102 191 174 297 50 73 81 109 92 109 8 0 12-3 13-9 24-163 3-322-12-477-6-63 62-76 101-37 65 64 45 212 54 340 10 141 7 304-15 413-8 15-20 23-37 23-76 0-203-132-244-200-33-54-79-109-116-169l4 4c-9-20-41-55-54-51-14 102-5 244 6 344 3 30-15 69-41 68-9 0-28-1-56-3-44-28-39-45-39-119" id="C"/><path d="M44-443c79-191 208-366 448-366 141 0 239 118 267 253 46 222-61 413-213 490-83 42-221 78-338 30-55-23-106-43-129-82-26-14-80-140-57-202 2-41 8-89 22-123zm103 115c1 136 75 191 208 191 130 0 180-50 241-135 38-53 55-111 55-169 0-109-73-236-179-227-143 12-260 151-311 271-9 24-14 47-14 69" id="D"/><g id="e"><use transform="matrix(0.018,0,0,0.018,0,0)" xlink:href="#C"/><use transform="matrix(0.018,0,0,0.018,11.537999999999998,0)" xlink:href="#D"/><use transform="matrix(0.018,0,0,0.018,26.604,0)" xlink:href="#C"/></g><path d="M44-443c79-191 208-366 448-366 141 0 239 118 267 253 46 222-61 413-213 490-83 42-221 78-338 30-55-23-106-43-129-82-26-14-80-140-57-202 2-41 8-89 22-123zm103 115c1 136 75 191 208 191 130 0 180-50 241-135 38-53 55-111 55-169 0-109-73-236-179-227-143 12-260 151-311 271-9 24-14 47-14 69" id="E"/><g id="f"><use transform="matrix(0.01777773333333333,0,0,0.01777773333333333,0,0)" xlink:href="#w"/><use transform="matrix(0.01777773333333333,0,0,0.01777773333333333,11.946636799999999,0)" xlink:href="#E"/><use transform="matrix(0.01777773333333333,0,0,0.01777773333333333,26.222156666666663,0)" xlink:href="#r"/><use transform="matrix(0.01777773333333333,0,0,0.01777773333333333,39.00434693333332,0)" xlink:href="#E"/></g><path d="M19-91c0-222 71-428 58-668-3-62 121-44 170-33 118 27 229 50 293 128 44 53 63 97 63 217 0 165-189 328-383 400-36 13-62 45-108 45-66 0-93-23-93-89zm185-582c-30 151-43 322-58 489 5 39 27 28 60 14 129-54 276-147 276-304 0-155-106-203-278-199" id="F"/><path d="M23-677c-68-88 127-122 212-122 113 0 253 24 291 82 92 144-48 310-153 365-52 27-102 48-161 69-56 20-53 15-58 80-4 49-8 103-13 153-3 31-19 46-43 46-44 0-65-28-63-81 5-162 8-330 16-486 3-53-4-75-28-106zm415 73c0-44-44-66-132-66-78 0-124 8-135 26-10 16-14 89-14 218 0 44 22 39 57 25 83-34 224-115 224-203" id="G"/><g id="g"><use transform="matrix(0.01777773333333333,0,0,0.01777773333333333,0,0)" xlink:href="#F"/><use transform="matrix(0.01777773333333333,0,0,0.01777773333333333,10.73775093333333,0)" xlink:href="#x"/><use transform="matrix(0.01777773333333333,0,0,0.01777773333333333,22.57772133333333,0)" xlink:href="#G"/><use transform="matrix(0.01777773333333333,0,0,0.01777773333333333,32.60436293333333,0)" xlink:href="#t"/><use transform="matrix(0.01777773333333333,0,0,0.01777773333333333,43.53766893333333,0)" xlink:href="#u"/><use transform="matrix(0.01777773333333333,0,0,0.01777773333333333,53.97319839999999,0)" xlink:href="#y"/><use transform="matrix(0.01777773333333333,0,0,0.01777773333333333,65.24428133333332,0)" xlink:href="#o"/><use transform="matrix(0.01777773333333333,0,0,0.01777773333333333,77.08425173333332,0)" xlink:href="#x"/></g><use transform="matrix(0.01777773333333333,0,0,0.01777773333333333,0,0)" xlink:href="#B" id="h"/><path fill="#e81313" d="M44-443c79-191 208-366 448-366 141 0 239 118 267 253 46 222-61 413-213 490-83 42-221 78-338 30-55-23-106-43-129-82-26-14-80-140-57-202 2-41 8-89 22-123zm103 115c1 136 75 191 208 191 130 0 180-50 241-135 38-53 55-111 55-169 0-109-73-236-179-227-143 12-260 151-311 271-9 24-14 47-14 69" id="H"/><path fill="#e81313" d="M109-754c29-56 120 5 113 55-24 164-73 311-76 498 0 44 17 66 52 66 44 0 193-39 283-82 16-8 27-24 32-45 27-114 44-316 44-439 0-57 27-86 82-86 38 0 57 27 57 82 0 195-35 406-61 587 5 33 20 94-14 106-8 12-30 10-67-7-15-20-33-39-52-56C437-54 255 2 210 0 80-5 5-44 13-182c11-186 48-366 83-531 3-12 5-27 13-41" id="I"/><path fill="#e81313" d="M292-638c-67 2-113 14-176 21-81 9-112-68-58-103 132-46 304-52 470-66l65 5c50 52 43 111-50 111-45 0-75 15-112 18-18 16-19 83-24 152-7 108-21 214-33 322-5 46 36 20 67 20 54 0 81-10 139-16 43 25 50 62 23 110-151 29-311 50-490 79C58 24-8 22 3-44c14-83 161-45 224-90 22-16 24-69 29-107 17-126 33-258 36-397" id="J"/><g id="i"><use transform="matrix(0.018,0,0,0.018,0,0)" xlink:href="#H"/><use transform="matrix(0.018,0,0,0.018,14.453999999999999,0)" xlink:href="#I"/><use transform="matrix(0.018,0,0,0.018,27.144,0)" xlink:href="#J"/></g><path d="M24-128c0-158-18-313-5-472 6-74-11-192 62-191 78 1 88 68 113 130 59 143 102 191 174 297 50 73 81 109 92 109 8 0 12-3 13-9 24-163 3-322-12-477-6-63 62-76 101-37 65 64 45 212 54 340 10 141 7 304-15 413-8 15-20 23-37 23-76 0-203-132-244-200-33-54-79-109-116-169l4 4c-9-20-41-55-54-51-14 102-5 244 6 344 3 30-15 69-41 68-9 0-28-1-56-3-44-28-39-45-39-119" id="K"/><path d="M107-780c100 15 51 176 51 272 0 29 23 25 56 24 33-11 175 4 171-42 9-67 4-153 14-224 12-14 39-57 70-50 51 0 74 34 69 103L490-47c-6 28-25 57-57 56-118-5-54-182-54-299 0-34 3-75-15-85-65 6-127 12-191 19-52 29-23 162-29 239C135-7 87 19 22-30 10-48 7-67 13-88c-16-100 8-215 8-322 0-127-9-364 86-370" id="L"/><g id="j"><use transform="matrix(0.018,0,0,0.018,0,0)" xlink:href="#F"/><use transform="matrix(0.018,0,0,0.018,10.872,0)" xlink:href="#x"/><use transform="matrix(0.018,0,0,0.018,22.86,0)" xlink:href="#y"/><use transform="matrix(0.018,0,0,0.018,34.272,0)" xlink:href="#t"/><use transform="matrix(0.018,0,0,0.018,45.342,0)" xlink:href="#x"/><use transform="matrix(0.018,0,0,0.018,57.33,0)" xlink:href="#K"/><use transform="matrix(0.018,0,0,0.018,68.868,0)" xlink:href="#y"/><use transform="matrix(0.018,0,0,0.018,80.27999999999999,0)" xlink:href="#L"/><use transform="matrix(0.018,0,0,0.018,90.01799999999999,0)" xlink:href="#x"/><use transform="matrix(0.018,0,0,0.018,102.00599999999999,0)" xlink:href="#v"/></g><g id="k"><use transform="matrix(0.018,0,0,0.018,0,0)" xlink:href="#u"/><use transform="matrix(0.018,0,0,0.018,10.565999999999999,0)" xlink:href="#t"/><use transform="matrix(0.018,0,0,0.018,21.635999999999996,0)" xlink:href="#u"/><use transform="matrix(0.018,0,0,0.018,32.202,0)" xlink:href="#v"/><use transform="matrix(0.018,0,0,0.018,43.32599999999999,0)" xlink:href="#w"/><use transform="matrix(0.018,0,0,0.018,55.42199999999999,0)" xlink:href="#x"/></g><g id="l"><use transform="matrix(0.018,0,0,0.018,0,0)" xlink:href="#E"/><use transform="matrix(0.018,0,0,0.018,14.453999999999999,0)" xlink:href="#q"/><use transform="matrix(0.018,0,0,0.018,27.107999999999997,0)" xlink:href="#z"/></g><path fill="#e81313" d="M24-128c0-158-18-313-5-472 6-74-11-192 62-191 78 1 88 68 113 130 59 143 102 191 174 297 50 73 81 109 92 109 8 0 12-3 13-9 24-163 3-322-12-477-6-63 62-76 101-37 65 64 45 212 54 340 10 141 7 304-15 413-8 15-20 23-37 23-76 0-203-132-244-200-33-54-79-109-116-169l4 4c-9-20-41-55-54-51-14 102-5 244 6 344 3 30-15 69-41 68-9 0-28-1-56-3-44-28-39-45-39-119" id="M"/><g id="m"><use transform="matrix(0.018,0,0,0.018,0,0)" xlink:href="#M"/><use transform="matrix(0.018,0,0,0.018,11.537999999999998,0)" xlink:href="#H"/><use transform="matrix(0.018,0,0,0.018,26.604,0)" xlink:href="#M"/></g></defs></g></svg>