<svg xmlns="http://www.w3.org/2000/svg" xmlns:xlink="http://www.w3.org/1999/xlink" xmlns:lucid="lucid" width="713.58" height="1344.5"><g transform="translate(-508.5 -298.5)" lucid:page-tab-id="0_0"><path d="M832.4 300c16.84 0 30.5 13.66 30.5 30.5 0 16.86-13.66 30.52-30.5 30.52H659.56c-16.86 0-30.52-13.66-30.52-30.5 0-16.86 13.67-30.52 30.52-30.52z" stroke="#e81313" stroke-width="3" fill="#fff"/><use xlink:href="#a" transform="matrix(1,0,0,1,634.0553123810478,305) translate(81.985 34.298)"/><path d="M742.2 462.77a21.68 21.68 0 0 1 15 0l174.7 64.46a2.95 2.95 0 0 1 0 5.54l-174.68 64.46a21.68 21.68 0 0 1-15.02 0l-174.7-64.46a2.95 2.95 0 0 1 0-5.54z" stroke="#e81313" stroke-width="3" fill="#fff"/><use xlink:href="#b" transform="matrix(1,0,0,1,565,465) translate(73.168 73.60533333333333)"/><use xlink:href="#c" transform="matrix(1,0,0,1,565,465) translate(173.65066666666667 73.60533333333333)"/><use xlink:href="#d" transform="matrix(1,0,0,1,565,465) translate(202.90133333333333 73.60533333333333)"/><use xlink:href="#e" transform="matrix(1,0,0,1,565,465) translate(284.5866666666667 73.60533333333333)"/><path d="M747.57 364.02v46.13a1.07 1.07 0 0 0 1.07 1.08 1.07 1.07 0 0 1 1.07 1.07v27" stroke="#e81313" stroke-width="3" fill="none"/><path d="M749.04 364.06h-2.95v-1.54h2.94z" stroke="#e81313" stroke-width=".05" fill="#e81313"/><path d="M749.7 455.07l-4.63-14.26h9.27z" stroke="#e81313" stroke-width="3" fill="#e81313"/><path d="M952.1 409.25l2.06.5 1.96.8 1.8 1.1 1.6 1.38 1.38 1.6 1.1 1.8.82 1.97.5 2.06.15 2.05v95.56l-.16 2.05-.48 2.06-.8 1.96-1.12 1.8-1.37 1.6-1.6 1.38-1.8 1.1-1.97.82-2.05.5-2.04.15h-13.2v-2.95h13.08l1.7-.13 1.6-.4 1.54-.63 1.4-.86 1.26-1.06 1.07-1.26.87-1.4.64-1.53.4-1.6.13-1.7V422.6l-.14-1.7-.4-1.6-.63-1.53-.86-1.42-1.06-1.25-1.26-1.08-1.4-.86-1.53-.64-1.6-.4-1.7-.12H909.4v-2.95h40.64zm-183.9 2.8v-2.96h103.08v2.94z" stroke="#000" stroke-width=".05"/><path d="M936.9 531.48h-1.83l.15-.4.13-1.08-.13-1.08-.15-.4h1.82z"/><path stroke="#000" stroke-width=".05"/><path d="M766.7 415.2l-14.28-4.64 14.27-4.63z"/><path d="M768.16 417.23l-20.5-6.67 20.5-6.66zm-10.97-6.67l8 2.6v-5.2z" stroke="#000" stroke-width=".05"/><use xlink:href="#f" transform="matrix(1,0,0,1,871.2768598412416,397.6401725443826) translate(0.004999999999999005 21.222)"/><path d="M727.8 412.04H522.06l-1.7.13-1.6.4-1.54.62-1.4.85-1.26 1.07-1.07 1.26-.87 1.4-.64 1.53-.4 1.62-.13 1.7v1206.82l.14 1.7.4 1.6.63 1.54.86 1.4 1.06 1.26 1.26 1.07 1.4.87 1.53.64 1.6.4 1.7.13h214.32l1.7-.14 1.6-.4 1.53-.63 1.4-.86 1.26-1.06 1.08-1.26.86-1.4.63-1.53.4-1.6.12-1.7V1603h2.95v26.56l-.16 2.05-.5 2.07-.8 1.95-1.1 1.8-1.38 1.6-1.6 1.38-1.82 1.1-1.95.82-2.07.5-2.05.15H521.94l-2.05-.16-2.06-.48-1.96-.8-1.8-1.12-1.6-1.37-1.38-1.6-1.1-1.8-.82-1.97-.5-2.05-.16-2.04V422.5l.17-2.04.48-2.06.8-1.95 1.12-1.8 1.37-1.62 1.6-1.37 1.8-1.1 1.97-.82 2.05-.5 2.04-.15H727.8z" stroke="#e81313" stroke-width=".05" fill="#e81313"/><path d="M749.9 1603.04h-2.95v-1.54h2.95z" fill="#e81313"/><path stroke="#e81313" stroke-width=".05" fill="#e81313"/><path d="M743.57 410.56l-14.27 4.64v-9.27z" fill="#e81313"/><path d="M748.35 410.56l-20.52 6.67V403.9zm-17.57 2.6l8.02-2.6-8.02-2.6z" stroke="#e81313" stroke-width=".05" fill="#e81313"/><path d="M749.7 743V779.12" stroke="#e81313" stroke-width="3" fill="none"/><path d="M751.18 743.04h-2.94v-1.54h2.94z" stroke="#e81313" stroke-width=".05" fill="#e81313"/><path d="M749.7 794.88l-4.63-14.27h9.27z" stroke="#e81313" stroke-width="3" fill="#e81313"/><path d="M742.08 802.4a25.3 25.3 0 0 1 15.26 0l174.45 55.2a2.53 2.53 0 0 1 0 4.8l-174.46 55.2a25.3 25.3 0 0 1-15.26 0l-174.45-55.2a2.53 2.53 0 0 1 0-4.8z" stroke="#e81313" stroke-width="3" fill="#fff"/><use xlink:href="#g" transform="matrix(1,0,0,1,565,805) translate(104.54686780000002 63.195535066666665)"/><use xlink:href="#h" transform="matrix(1,0,0,1,565,805) translate(182.3422288666667 63.195535066666665)"/><use xlink:href="#i" transform="matrix(1,0,0,1,565,805) translate(253.79093913333332 63.195535066666665)"/><path d="M751.18 616.36h-2.94v-14.8h2.94z" stroke="#e81313" stroke-width=".05" fill="#e81313"/><path d="M749.7 600.07l1.48-.05v1.6h-2.94V600z" fill="#e81313"/><path stroke="#e81313" stroke-width=".05" fill="#e81313"/><path d="M749.7 653.65L746 642.2h7.43z" fill="#e81313"/><path d="M749.7 658.42l-5.26-16.2h3.1l2.17 6.65 2.17-6.66h3.1z" stroke="#e81313" stroke-width=".05" fill="#e81313"/><use xlink:href="#j" transform="matrix(1,0,0,1,730.4227692307692,616.3620628008588) translate(0.004999999999999005 21.222)"/><path d="M601.25 668a8 8 0 0 1 8-8h280.92a8 8 0 0 1 8 8v64a8 8 0 0 1-8 8H609.25a8 8 0 0 1-8-8z" stroke="#e81313" stroke-width="3" fill="#fff"/><use xlink:href="#k" transform="matrix(1,0,0,1,606.2482307692308,665) translate(58.783 43.298)"/><use xlink:href="#l" transform="matrix(1,0,0,1,606.2482307692308,665) translate(154.23700000000002 43.298)"/><path d="M601.25 1008a8 8 0 0 1 8-8h280.92a8 8 0 0 1 8 8v64a8 8 0 0 1-8 8H609.25a8 8 0 0 1-8-8z" stroke="#e81313" stroke-width="3" fill="#fff"/><use xlink:href="#m" transform="matrix(1,0,0,1,606.2482307692308,1005) translate(69.799 43.298)"/><use xlink:href="#n" transform="matrix(1,0,0,1,606.2482307692308,1005) translate(143.779 43.298)"/><path d="M601.25 1148a8 8 0 0 1 8-8h280.92a8 8 0 0 1 8 8v64a8 8 0 0 1-8 8H609.25a8 8 0 0 1-8-8z" stroke="#e81313" stroke-width="3" fill="#fff"/><use xlink:href="#o" transform="matrix(1,0,0,1,606.2482307692308,1145) translate(55.254999999999995 43.298)"/><use xlink:href="#p" transform="matrix(1,0,0,1,606.2482307692308,1145) translate(132.457 43.298)"/><path d="M751.18 977.88h-2.94v-17.03h2.94zm0-42.87h-2.94v-13.23h2.94z" stroke="#e81313" stroke-width=".05" fill="#e81313"/><path d="M749.7 920.27l1.48-.05v1.58h-2.94v-1.58z" fill="#e81313"/><path stroke="#e81313" stroke-width=".05" fill="#e81313"/><path d="M749.7 993.65l-4.63-14.27h9.27z" fill="#e81313"/><path d="M749.7 998.42l-6.66-20.5h13.34zm-2.6-17.56l2.6 8 2.62-8z" stroke="#e81313" stroke-width=".05" fill="#e81313"/><use xlink:href="#q" transform="matrix(1,0,0,1,730.4407692307692,935.0056776587234) translate(0.004999999999999005 21.222)"/><path d="M749.7 1083v34.88" stroke="#e81313" stroke-width="3" fill="none"/><path d="M751.18 1083.04h-2.94v-1.54h2.94z" stroke="#e81313" stroke-width=".05" fill="#e81313"/><path d="M749.7 1133.65l-4.63-14.27h9.27z" stroke="#e81313" stroke-width="3" fill="#e81313"/><path d="M958.02 861.48h-21.45v-2.96h21.45zm39.86 0h-2.33v-2.96h2.33z" stroke="#333" stroke-width=".05" fill="#333"/><path d="M936.6 861.48h-1.84l.18-.47.13-1-.13-1-.18-.48h1.85z" fill="#333"/><path stroke="#333" stroke-width=".05" fill="#333"/><path d="M1013.65 860l-14.27 4.63v-9.26z" fill="#333"/><path d="M1018.42 860l-20.5 6.66v-13.32zm-17.56 2.6l8-2.6-8-2.6z" stroke="#333" stroke-width=".05" fill="#333"/><use xlink:href="#r" transform="matrix(1,0,0,1,958.020592954982,847.076) translate(0.004999999999999005 21.222)"/><path d="M1020 818a8 8 0 0 1 8-8h184.58a8 8 0 0 1 8 8v84a8 8 0 0 1-8 8H1028a8 8 0 0 1-8-8z" stroke="#333" stroke-width="3" fill="#fff"/><use xlink:href="#s" transform="matrix(1,0,0,1,1025,815) translate(22.70907086666668 53.195535066666665)"/><use xlink:href="#t" transform="matrix(1,0,0,1,1025,815) translate(95.77555486666667 53.195535066666665)"/><path d="M1120.3 807V422.56a12 12 0 0 0-12-12H976.5" stroke="#333" stroke-width="3" fill="none"/><path d="M1121.77 808.5h-2.95v-1.54h2.95z" stroke="#333" stroke-width=".05" fill="#333"/><path d="M960.74 410.56l14.26-4.63v9.27z" stroke="#333" stroke-width="3" fill="#333"/><path d="M749.7 1223v36.5" stroke="#e81313" stroke-width="3" fill="none"/><path d="M751.18 1223.04h-2.94v-1.54h2.94z" stroke="#e81313" stroke-width=".05" fill="#e81313"/><path d="M749.7 1275.26l-4.63-14.26h9.27z" stroke="#e81313" stroke-width="3" fill="#e81313"/><path d="M742.34 1283.1a18.97 18.97 0 0 1 14.74 0l174.97 73.8a3.37 3.37 0 0 1 0 6.2l-174.97 73.8a18.97 18.97 0 0 1-14.74 0l-174.97-73.8a3.37 3.37 0 0 1 0-6.2z" stroke="#e81313" stroke-width="3" fill="#fff"/><use xlink:href="#u" transform="matrix(1,0,0,1,565,1285) translate(51.503000000000014 70.374)"/><use xlink:href="#v" transform="matrix(1,0,0,1,565,1285) translate(166.415 70.374)"/><use xlink:href="#w" transform="matrix(1,0,0,1,565,1285) translate(263.30899999999997 70.374)"/><use xlink:href="#x" transform="matrix(1,0,0,1,565,1285) translate(112.577 96.22200000000001)"/><use xlink:href="#y" transform="matrix(1,0,0,1,565,1285) translate(140.981 96.22200000000001)"/><use xlink:href="#z" transform="matrix(1,0,0,1,565,1285) translate(245.615 96.22200000000001)"/><path d="M751.18 1497.88h-2.94v-5.76h2.94zm0-31.6h-2.94v-24.9h2.94z" stroke="#e81313" stroke-width=".05" fill="#e81313"/><path d="M749.7 1439.88l1.48-.06v1.6h-2.94v-1.6z" fill="#e81313"/><path stroke="#e81313" stroke-width=".05" fill="#e81313"/><path d="M749.7 1513.65l-4.63-14.27h9.27z" fill="#e81313"/><path d="M749.7 1518.42l-6.66-20.52h13.34zm-2.6-17.57l2.6 8.02 2.62-8z" stroke="#e81313" stroke-width=".05" fill="#e81313"/><g><use xlink:href="#A" transform="matrix(1,0,0,1,730.4407691599074,1466.2677161112626) translate(0.004999999999999005 21.222)"/></g><path d="M601.25 1528a8 8 0 0 1 8-8h280.92a8 8 0 0 1 8 8v64a8 8 0 0 1-8 8H609.25a8 8 0 0 1-8-8z" stroke="#e81313" stroke-width="3" fill="#fff"/><g><use xlink:href="#B" transform="matrix(1,0,0,1,606.2482307692308,1525) translate(57.04599999999999 43.298)"/><use xlink:href="#p" transform="matrix(1,0,0,1,606.2482307692308,1525) translate(130.666 43.298)"/></g><path d="M977.1 1348.06l-.17 2.05-.5 2.07-.8 1.95-1.1 1.8-1.38 1.6-1.6 1.38-1.8 1.1-1.96.82-2.07.5-2.05.15h-26.56v-2.94h26.44l1.7-.14 1.6-.4 1.54-.63 1.4-.86 1.26-1.06 1.07-1.26.87-1.4.63-1.53.38-1.6.15-1.7v-82.35h2.95zm-11.37-237.5l2.06.5 1.94.8 1.8 1.1 1.6 1.38 1.4 1.6 1.1 1.8.8 1.96.5 2.06.16 2.05v115.96h-2.95v-115.84l-.14-1.7-.37-1.6-.63-1.53-.87-1.42-1.07-1.25-1.25-1.08-1.4-.86-1.53-.64-1.6-.38-1.7-.14H770.32v-2.95h193.35z" stroke="#000" stroke-width=".05"/><path d="M937.16 1361.47h-1.8l.13-.34.12-1.13-.13-1.13-.14-.34h1.8z"/><path stroke="#000" stroke-width=".05"/><path d="M768.83 1116.5l-14.27-4.63 14.27-4.64z"/><path d="M770.3 1118.53l-20.5-6.66 20.5-6.67zm-10.96-6.66l8 2.6v-5.2z" stroke="#000" stroke-width=".05"/><g><use xlink:href="#C" transform="matrix(1,0,0,1,956.85617965437,1239.7557310548368) translate(0.004999999999999005 21.222)"/></g><defs><path d="M19-91c0-222 71-428 58-668-3-62 121-44 170-33 118 27 229 50 293 128 44 53 63 97 63 217 0 165-189 328-383 400-36 13-62 45-108 45-66 0-93-23-93-89zm185-582c-30 151-43 322-58 489 5 39 27 28 60 14 129-54 276-147 276-304 0-155-106-203-278-199" id="D"/><path d="M200-621c86-36 205-38 320-43 17-2 34-6 53-13 25-50-14-102-50-120-105-15-221 22-318 37-49 22-126 13-155 55-12 101 7 262-12 371C15-202-37 19 166-4c120-14 222-47 358-47 61 0 128-2 134-62 3-35-15-67-42-76-93 13-205 8-286 31-46 13-96 23-151 16-29-4-39-25-30-58 2-52 0-110 16-152 11-29 60-22 94-30 65-16 139-26 220-15 42 6 65-40 42-74-13-19-34-26-64-31-88-15-182 2-264 12-22-4-15-32-15-46 0-32 0-66 14-85h8zm218-545c39-2 66 47 43 84-18 28-32 54-49 77l1-1c-23 43-45 97-73 132-21 27-86 23-80-23-6-36 68-166 96-218 19-35 41-51 62-51" id="E"/><path d="M68-174c-8-157-1-333-1-488 0-23-21-28-12-60 24-87 141-85 256-77 161 12 317 42 251 258-5 17-40 45-44 60 15 30 85 80 98 123 62 108 25 192-76 258C455-45 341-9 207-4 145-2 19-30 19-85c0-36 51-41 49-89zm137-510c-18 6-26 137-16 192 30 22 66 2 112-6 70-13 158-95 159-132 17-68-169-82-255-54zm-15 330c-15 57-2 155 5 215 6 4 6 12 18 11 101-5 211-32 267-82 52-46 58-91 12-140s-73-73-81-73c-39 14-121 48-173 54-15 2-34 14-48 15" id="F"/><path d="M106-737c41-53 131 12 108 86-42 139-71 285-71 455 0 88 72 66 143 48 49-12 128-35 183-63 38-19 36-69 44-119 17-114 31-247 31-354 0-57 26-85 79-85 37 0 55 27 55 81 0 190-34 397-59 573 4 31 20 93-13 105-8 10-30 7-65-8-16-20-33-38-51-54C397-48 305 0 205 0 79 0 5-43 13-176c13-196 50-391 93-561" id="G"/><path d="M593-790c58 0 99 54 77 117-5 13-15 16-35 14-70-7-152-3-229 7-31 20-24 81-26 127-4 138-16 277-16 422 0 32 4 70-21 83-26 36-88 7-103-20 1-182 10-346 21-521 2-27 11-81-18-84-73-7-138 11-206 3-20-18-39-18-32-51-3-78 74-91 145-91 129 0 251 6 369-8 25-3 49 2 74 2" id="H"/><g id="a"><use transform="matrix(0.018,0,0,0.018,0,0)" xlink:href="#D"/><use transform="matrix(0.018,0,0,0.018,10.872,0)" xlink:href="#E"/><use transform="matrix(0.018,0,0,0.018,22.86,0)" xlink:href="#F"/><use transform="matrix(0.018,0,0,0.018,34.434,0)" xlink:href="#G"/><use transform="matrix(0.018,0,0,0.018,47.087999999999994,0)" xlink:href="#H"/></g><path d="M23-677c-68-88 127-122 212-122 113 0 253 24 291 82 92 144-48 310-153 365-52 27-102 48-161 69-56 20-53 15-58 80-4 49-8 103-13 153-3 31-19 46-43 46-44 0-65-28-63-81 5-162 8-330 16-486 3-53-4-75-28-106zm415 73c0-44-44-66-132-66-78 0-124 8-135 26-10 16-14 89-14 218 0 44 22 39 57 25 83-34 224-115 224-203" id="I"/><path d="M608-642l-20 77c-36 56-69 94-113 138-49 48-58 40-29 81 33 46 69 89 97 147 44 89 52 141 40 147-3 38-20 49-63 52-68 5-97-106-129-160-40-68-56-162-144-164-53-1-27 78-45 121-7 56-12 123-28 170C157-4 113 24 66-1 46-11 40-39 49-87c19-111 19-139 19-313 0-144 1-187-40-242-27-37-13-94 26-108 103-36 250-59 389-41 63 8 182 85 165 149zm-140 11c-10-39-42-58-96-57-53 12-154 21-179 43-5 9-8 31-8 65 0 151 19 135 127 94 94-36 148-79 156-145" id="J"/><path d="M371-533c189 0 256 55 239 237-9 91-67 138-157 205C374-33 301-7 236-7 155-7 13-82 18-160c3-44 62-73 96-38 43 44 152 73 218 29 77-51 166-125 156-169 2-44-67-63-119-62-47 1-108 1-155 3C87-393 13-429 1-531c11-87 101-150 165-187 90-52 160-96 290-87 34 2 118 78 115 115-3 35-23 38-55 45-15 4-26-4-33-24-37-64-116-1-164 12-41 11-154 77-154 113 0 15 14 22 41 22 45 0 127-11 165-11" id="K"/><path d="M330-158c82-22 193-18 286-31 38 11 58 81 24 113-25 24-71 25-116 25-135 0-238 34-358 47C61 7 4-52 15-159c12-113 37-213 32-340-2-59 2-121-2-178-2-44 35-62 81-61 104-31 222-52 345-64 68-7 103 34 111 94 2 12-3 22-9 31-33 14-62 15-103 16-100 2-196 10-270 40h-8c-18 23-11 79-15 106-1 13 5 22 16 25 82-10 176-25 264-12 44 7 78 26 71 72-7 49-76 30-125 30-78 0-138 22-210 29-24 1-35 28-36 52-2 41-10 83-8 126-19 84 122 51 181 35" id="L"/><path d="M24-128c0-158-18-313-5-472 6-74-11-192 62-191 78 1 88 68 113 130 59 143 102 191 174 297 50 73 81 109 92 109 8 0 12-3 13-9 24-163 3-322-12-477-6-63 62-76 101-37 65 64 45 212 54 340 10 141 7 304-15 413-8 15-20 23-37 23-76 0-203-132-244-200-33-54-79-109-116-169l4 4c-9-20-41-55-54-51-14 102-5 244 6 344 3 30-15 69-41 68-9 0-28-1-56-3-44-28-39-45-39-119" id="M"/><path d="M521-275c40-33 108-24 108 34 0 49-75 103-210 183-80 47-247 72-323 10-66-54-95-101-82-218 12-106 41-136 91-224 55-96 145-209 240-278 32-23 68-33 107-33 86 2 108 61 107 158 0 55-15 82-44 82-55 1-25-116-79-110-132 15-229 223-291 334-48 86-31 226 81 218 122-9 217-92 295-156" id="N"/><g id="b"><use transform="matrix(0.018666666666666668,0,0,0.018666666666666668,0,0)" xlink:href="#I"/><use transform="matrix(0.018666666666666668,0,0,0.018666666666666668,10.528,0)" xlink:href="#J"/><use transform="matrix(0.018666666666666668,0,0,0.018666666666666668,22.064,0)" xlink:href="#E"/><use transform="matrix(0.018666666666666668,0,0,0.018666666666666668,34.496,0)" xlink:href="#K"/><use transform="matrix(0.018666666666666668,0,0,0.018666666666666668,46.27466666666667,0)" xlink:href="#L"/><use transform="matrix(0.018666666666666668,0,0,0.018666666666666668,58.70666666666667,0)" xlink:href="#M"/><use transform="matrix(0.018666666666666668,0,0,0.018666666666666668,70.672,0)" xlink:href="#N"/><use transform="matrix(0.018666666666666668,0,0,0.018666666666666668,82.50666666666666,0)" xlink:href="#L"/></g><path d="M19-91c0-222 71-428 58-668-3-62 121-44 170-33 118 27 229 50 293 128 44 53 63 97 63 217 0 165-189 328-383 400-36 13-62 45-108 45-66 0-93-23-93-89zm185-582c-30 151-43 322-58 489 5 39 27 28 60 14 129-54 276-147 276-304 0-155-106-203-278-199" id="O"/><g id="c"><use transform="matrix(0.018666666666666668,0,0,0.018666666666666668,0,0)" xlink:href="#O"/><use transform="matrix(0.018666666666666668,0,0,0.018666666666666668,11.274666666666668,0)" xlink:href="#L"/></g><path d="M292-638c-67 2-113 14-176 21-81 9-112-68-58-103 132-46 304-52 470-66l65 5c50 52 43 111-50 111-45 0-75 15-112 18-18 16-19 83-24 152-7 108-21 214-33 322-5 46 36 20 67 20 54 0 81-10 139-16 43 25 50 62 23 110-151 29-311 50-490 79C58 24-8 22 3-44c14-83 161-45 224-90 22-16 24-69 29-107 17-126 33-258 36-397" id="P"/><path d="M583 1c26 5 52-17 51-41 24-60-22-103-43-144-74-69-132-138-184-228-37-64 44-88 81-120 65-56 138-104 195-168 35-39 5-108-40-113-66 17-104 68-150 105-81 65-158 127-245 187-18 12-48 33-70 13-6-6-8-14-7-23 3-63 18-122 28-181-3-53-39-88-92-91-82 12-51 140-71 216 1 133-13 257-20 381-3 58-27 167 27 193 35 29 78-2 98-20 30-59 16-164 24-251 3-31 38-61 73-59 78 41 118 121 174 184 38 44 71 96 112 139 15 15 32 34 59 21" id="Q"/><g id="d"><use transform="matrix(0.018666666666666668,0,0,0.018666666666666668,0,0)" xlink:href="#H"/><use transform="matrix(0.018666666666666668,0,0,0.018666666666666668,13.421333333333335,0)" xlink:href="#P"/><use transform="matrix(0.018666666666666668,0,0,0.018666666666666668,25.27466666666667,0)" xlink:href="#N"/><use transform="matrix(0.018666666666666668,0,0,0.018666666666666668,37.10933333333334,0)" xlink:href="#Q"/><use transform="matrix(0.018666666666666668,0,0,0.018666666666666668,50.28800000000001,0)" xlink:href="#L"/><use transform="matrix(0.018666666666666668,0,0,0.018666666666666668,62.72000000000001,0)" xlink:href="#H"/></g><path d="M103-360c0-112 97-112 179-128 97-18 242-75 249-136 6-48-42-75-151-71-112 4-194 15-276 54-32 15-101 31-94-24 35-105 323-159 505-131 75 11 164 108 120 200-57 118-164 168-297 220-46 18-100 9-130 40-14 46-42 100-66 94-26 0-39-39-39-118zm112 214c60 54-29 135-88 135-48 0-65-33-51-98 18-31 37-56 89-54 19 0 36 5 50 17" id="R"/><use transform="matrix(0.018666666666666668,0,0,0.018666666666666668,0,0)" xlink:href="#R" id="e"/><path d="M24-128c0-158-18-313-5-472 6-74-11-192 62-191 78 1 88 68 113 130 59 143 102 191 174 297 50 73 81 109 92 109 8 0 12-3 13-9 24-163 3-322-12-477-6-63 62-76 101-37 65 64 45 212 54 340 10 141 7 304-15 413-8 15-20 23-37 23-76 0-203-132-244-200-33-54-79-109-116-169l4 4c-9-20-41-55-54-51-14 102-5 244 6 344 3 30-15 69-41 68-9 0-28-1-56-3-44-28-39-45-39-119" id="S"/><path d="M44-443c79-191 208-366 448-366 141 0 239 118 267 253 46 222-61 413-213 490-83 42-221 78-338 30-55-23-106-43-129-82-26-14-80-140-57-202 2-41 8-89 22-123zm103 115c1 136 75 191 208 191 130 0 180-50 241-135 38-53 55-111 55-169 0-109-73-236-179-227-143 12-260 151-311 271-9 24-14 47-14 69" id="T"/><g id="f"><use transform="matrix(0.018,0,0,0.018,0,0)" xlink:href="#S"/><use transform="matrix(0.018,0,0,0.018,11.537999999999998,0)" xlink:href="#T"/><use transform="matrix(0.018,0,0,0.018,26.604,0)" xlink:href="#S"/></g><g id="g"><use transform="matrix(0.01777773333333333,0,0,0.01777773333333333,0,0)" xlink:href="#H"/><use transform="matrix(0.01777773333333333,0,0,0.01777773333333333,12.782190266666664,0)" xlink:href="#P"/><use transform="matrix(0.01777773333333333,0,0,0.01777773333333333,24.07105093333333,0)" xlink:href="#N"/><use transform="matrix(0.01777773333333333,0,0,0.01777773333333333,35.34213386666666,0)" xlink:href="#Q"/><use transform="matrix(0.01777773333333333,0,0,0.01777773333333333,47.89321359999999,0)" xlink:href="#L"/><use transform="matrix(0.01777773333333333,0,0,0.01777773333333333,59.73318399999999,0)" xlink:href="#H"/></g><path d="M109-735c-25-57-110-11-99 37 30 130 91 291 122 410 18 69 44 132 72 190 44 90 75 116 148 73 102-105 149-290 208-441 32-82 48-168 48-261 0-51-15-77-46-77-38 0-59 34-73 100-35 160-89 312-149 454-40 95-58 66-91-37-28-90-54-179-79-263-24-79-42-141-61-185" id="U"/><path d="M103-24C79 10-2-14 8-59c42-186 129-353 193-524 23-62 63-135 99-197 39-38 106-10 109 47 27 100 51 209 81 307 8 25 72 24 72 63 0 44-26 46-37 75 12 83 46 156 55 243 7 63-106 47-114 11-13-58-36-170-57-231-3-4-7-8-9-14-69 4-134 40-198 52-53 21-53 108-81 160-4 16-8 29-18 43zm215-551c-16 18-92 195-73 208 46 2 100-12 123-31-5-30-32-162-38-171-2-3-6-5-12-6" id="V"/><path d="M21-302C-7-136 9 24 196-12c147-28 263-93 386-142 57-23 26-120-26-120-111 32-240 115-378 126-13 1-22-26-25-45 30-174 59-350 88-524 10-62-86-124-120-61-39 73-49 196-69 277-19 77-22 145-31 199" id="W"/><g id="h"><use transform="matrix(0.01777773333333333,0,0,0.01777773333333333,0,0)" xlink:href="#U"/><use transform="matrix(0.01777773333333333,0,0,0.01777773333333333,10.933305999999998,0)" xlink:href="#V"/><use transform="matrix(0.01777773333333333,0,0,0.01777773333333333,21.368835466666663,0)" xlink:href="#W"/><use transform="matrix(0.01777773333333333,0,0,0.01777773333333333,32.30214146666666,0)" xlink:href="#P"/><use transform="matrix(0.01777773333333333,0,0,0.01777773333333333,43.591002133333326,0)" xlink:href="#O"/><use transform="matrix(0.01777773333333333,0,0,0.01777773333333333,54.32875306666666,0)" xlink:href="#L"/></g><use transform="matrix(0.01777773333333333,0,0,0.01777773333333333,0,0)" xlink:href="#R" id="i"/><path d="M109-754c29-56 120 5 113 55-24 164-73 311-76 498 0 44 17 66 52 66 44 0 193-39 283-82 16-8 27-24 32-45 27-114 44-316 44-439 0-57 27-86 82-86 38 0 57 27 57 82 0 195-35 406-61 587 5 33 20 94-14 106-8 12-30 10-67-7-15-20-33-39-52-56C437-54 255 2 210 0 80-5 5-44 13-182c11-186 48-366 83-531 3-12 5-27 13-41" id="X"/><path d="M292-638c-67 2-113 14-176 21-81 9-112-68-58-103 132-46 304-52 470-66l65 5c50 52 43 111-50 111-45 0-75 15-112 18-18 16-19 83-24 152-7 108-21 214-33 322-5 46 36 20 67 20 54 0 81-10 139-16 43 25 50 62 23 110-151 29-311 50-490 79C58 24-8 22 3-44c14-83 161-45 224-90 22-16 24-69 29-107 17-126 33-258 36-397" id="Y"/><g id="j"><use transform="matrix(0.018,0,0,0.018,0,0)" xlink:href="#T"/><use transform="matrix(0.018,0,0,0.018,14.453999999999999,0)" xlink:href="#X"/><use transform="matrix(0.018,0,0,0.018,27.144,0)" xlink:href="#Y"/></g><path d="M109-735c-25-57-110-11-99 37 30 130 91 291 122 410 18 69 44 132 72 190 44 90 75 116 148 73 102-105 149-290 208-441 32-82 48-168 48-261 0-51-15-77-46-77-38 0-59 34-73 100-35 160-89 312-149 454-40 95-58 66-91-37-28-90-54-179-79-263-24-79-42-141-61-185" id="Z"/><path d="M39-49c-7-93 9-204-6-289-18-30-12-41 1-77 37-27 19-97 25-162 2-23-27-37-49-40-11-18-14-56 0-71 17-39 273-99 376-109 72-7 163-32 165 45 1 65-62 51-115 66-63 18-176 24-229 55-41 23-20 107-25 176 83-2 166-25 259-33 74-6 91 70 44 97-80 23-228 35-304 57-18 6-27 18-27 35-9 45 6 274-42 299-35 2-92-5-73-49" id="aa"/><g id="k"><use transform="matrix(0.018,0,0,0.018,0,0)" xlink:href="#Z"/><use transform="matrix(0.018,0,0,0.018,11.069999999999999,0)" xlink:href="#E"/><use transform="matrix(0.018,0,0,0.018,23.058,0)" xlink:href="#J"/><use transform="matrix(0.018,0,0,0.018,34.182,0)" xlink:href="#P"/><use transform="matrix(0.018,0,0,0.018,45.612,0)" xlink:href="#aa"/><use transform="matrix(0.018,0,0,0.018,55.566,0)" xlink:href="#P"/><use transform="matrix(0.018,0,0,0.018,66.99600000000001,0)" xlink:href="#L"/><use transform="matrix(0.018,0,0,0.018,78.98400000000001,0)" xlink:href="#J"/></g><g id="l"><use transform="matrix(0.018,0,0,0.018,0,0)" xlink:href="#H"/><use transform="matrix(0.018,0,0,0.018,12.941999999999998,0)" xlink:href="#L"/><use transform="matrix(0.018,0,0,0.018,24.93,0)" xlink:href="#N"/><use transform="matrix(0.018,0,0,0.018,36.342,0)" xlink:href="#Q"/><use transform="matrix(0.018,0,0,0.018,49.05,0)" xlink:href="#L"/><use transform="matrix(0.018,0,0,0.018,61.038,0)" xlink:href="#H"/></g><g id="m"><use transform="matrix(0.018,0,0,0.018,0,0)" xlink:href="#J"/><use transform="matrix(0.018,0,0,0.018,11.123999999999999,0)" xlink:href="#L"/><use transform="matrix(0.018,0,0,0.018,23.112,0)" xlink:href="#M"/><use transform="matrix(0.018,0,0,0.018,34.65,0)" xlink:href="#O"/><use transform="matrix(0.018,0,0,0.018,45.522,0)" xlink:href="#J"/><use transform="matrix(0.018,0,0,0.018,56.646,0)" xlink:href="#L"/></g><g id="n"><use transform="matrix(0.018,0,0,0.018,0,0)" xlink:href="#H"/><use transform="matrix(0.018,0,0,0.018,12.941999999999998,0)" xlink:href="#P"/><use transform="matrix(0.018,0,0,0.018,24.372,0)" xlink:href="#N"/><use transform="matrix(0.018,0,0,0.018,35.784,0)" xlink:href="#Q"/><use transform="matrix(0.018,0,0,0.018,48.492,0)" xlink:href="#L"/><use transform="matrix(0.018,0,0,0.018,60.48,0)" xlink:href="#H"/></g><path d="M44-443c79-191 208-366 448-366 141 0 239 118 267 253 46 222-61 413-213 490-83 42-221 78-338 30-55-23-106-43-129-82-26-14-80-140-57-202 2-41 8-89 22-123zm103 115c1 136 75 191 208 191 130 0 180-50 241-135 38-53 55-111 55-169 0-109-73-236-179-227-143 12-260 151-311 271-9 24-14 47-14 69" id="ab"/><g id="o"><use transform="matrix(0.018,0,0,0.018,0,0)" xlink:href="#ab"/><use transform="matrix(0.018,0,0,0.018,14.453999999999999,0)" xlink:href="#G"/><use transform="matrix(0.018,0,0,0.018,27.107999999999997,0)" xlink:href="#U"/><use transform="matrix(0.018,0,0,0.018,38.178,0)" xlink:href="#J"/><use transform="matrix(0.018,0,0,0.018,49.302,0)" xlink:href="#P"/><use transform="matrix(0.018,0,0,0.018,60.73199999999999,0)" xlink:href="#J"/></g><path d="M23-677c-68-88 127-122 212-122 113 0 253 24 291 82 92 144-48 310-153 365-52 27-102 48-161 69-56 20-53 15-58 80-4 49-8 103-13 153-3 31-19 46-43 46-44 0-65-28-63-81 5-162 8-330 16-486 3-53-4-75-28-106zm415 73c0-44-44-66-132-66-78 0-124 8-135 26-10 16-14 89-14 218 0 44 22 39 57 25 83-34 224-115 224-203" id="ac"/><path d="M697 1c1 28-21 55-50 54-21 0-46-18-77-52-32-35-51-52-56-52C390 2 288 19 176-28 69-73 12-126 13-276c0-184 157-386 282-467 76-50 243-89 339-27 58 37 109 80 135 146 29 74 35 147 3 242-27 79-64 141-111 199-18 23-27 38-27 44 0 19 74 109 63 140zM448-200c12-68-47-222 52-222 51 0 64 41 70 89 9 80 60-19 72-41 20-37 29-84 29-134 1-93-48-165-140-161-161 7-233 84-316 209-53 79-80 143-80 192-1 114 135 154 246 114 40-14 63-27 67-46" id="ad"/><g id="p"><use transform="matrix(0.018,0,0,0.018,0,0)" xlink:href="#ac"/><use transform="matrix(0.018,0,0,0.018,10.152,0)" xlink:href="#ab"/><use transform="matrix(0.018,0,0,0.018,24.605999999999998,0)" xlink:href="#J"/><use transform="matrix(0.018,0,0,0.018,35.73,0)" xlink:href="#H"/><use transform="matrix(0.018,0,0,0.018,48.672,0)" xlink:href="#P"/><use transform="matrix(0.018,0,0,0.018,60.102,0)" xlink:href="#ad"/><use transform="matrix(0.018,0,0,0.018,74.646,0)" xlink:href="#G"/><use transform="matrix(0.018,0,0,0.018,87.3,0)" xlink:href="#L"/></g><g id="q"><use transform="matrix(0.018,0,0,0.018,0,0)" xlink:href="#ab"/><use transform="matrix(0.018,0,0,0.018,14.453999999999999,0)" xlink:href="#G"/><use transform="matrix(0.018,0,0,0.018,27.107999999999997,0)" xlink:href="#P"/></g><g id="r"><use transform="matrix(0.018,0,0,0.018,0,0)" xlink:href="#S"/><use transform="matrix(0.018,0,0,0.018,11.537999999999998,0)" xlink:href="#ab"/><use transform="matrix(0.018,0,0,0.018,25.991999999999997,0)" xlink:href="#M"/></g><path d="M608-642l-20 77c-36 56-69 94-113 138-49 48-58 40-29 81 33 46 69 89 97 147 44 89 52 141 40 147-3 38-20 49-63 52-68 5-97-106-129-160-40-68-56-162-144-164-53-1-27 78-45 121-7 56-12 123-28 170C157-4 113 24 66-1 46-11 40-39 49-87c19-111 19-139 19-313 0-144 1-187-40-242-27-37-13-94 26-108 103-36 250-59 389-41 63 8 182 85 165 149zm-140 11c-10-39-42-58-96-57-53 12-154 21-179 43-5 9-8 31-8 65 0 151 19 135 127 94 94-36 148-79 156-145" id="ae"/><g id="s"><use transform="matrix(0.01777773333333333,0,0,0.01777773333333333,0,0)" xlink:href="#ae"/><use transform="matrix(0.01777773333333333,0,0,0.01777773333333333,10.986639199999997,0)" xlink:href="#L"/><use transform="matrix(0.01777773333333333,0,0,0.01777773333333333,22.826609599999998,0)" xlink:href="#M"/><use transform="matrix(0.01777773333333333,0,0,0.01777773333333333,34.222136666666664,0)" xlink:href="#O"/><use transform="matrix(0.01777773333333333,0,0,0.01777773333333333,44.959887599999995,0)" xlink:href="#J"/><use transform="matrix(0.01777773333333333,0,0,0.01777773333333333,55.94652679999999,0)" xlink:href="#L"/></g><g id="t"><use transform="matrix(0.01777773333333333,0,0,0.01777773333333333,0,0)" xlink:href="#H"/><use transform="matrix(0.01777773333333333,0,0,0.01777773333333333,12.782190266666664,0)" xlink:href="#P"/><use transform="matrix(0.01777773333333333,0,0,0.01777773333333333,24.07105093333333,0)" xlink:href="#N"/><use transform="matrix(0.01777773333333333,0,0,0.01777773333333333,35.34213386666666,0)" xlink:href="#Q"/><use transform="matrix(0.01777773333333333,0,0,0.01777773333333333,47.89321359999999,0)" xlink:href="#L"/><use transform="matrix(0.01777773333333333,0,0,0.01777773333333333,59.73318399999999,0)" xlink:href="#H"/></g><g id="u"><use transform="matrix(0.018,0,0,0.018,0,0)" xlink:href="#O"/><use transform="matrix(0.018,0,0,0.018,10.872,0)" xlink:href="#E"/><use transform="matrix(0.018,0,0,0.018,22.86,0)" xlink:href="#H"/><use transform="matrix(0.018,0,0,0.018,35.802,0)" xlink:href="#L"/><use transform="matrix(0.018,0,0,0.018,47.79,0)" xlink:href="#N"/><use transform="matrix(0.018,0,0,0.018,59.202,0)" xlink:href="#H"/><use transform="matrix(0.018,0,0,0.018,72.14399999999999,0)" xlink:href="#P"/><use transform="matrix(0.018,0,0,0.018,83.57399999999998,0)" xlink:href="#ab"/><use transform="matrix(0.018,0,0,0.018,98.02799999999998,0)" xlink:href="#M"/></g><g id="v"><use transform="matrix(0.018,0,0,0.018,0,0)" xlink:href="#ac"/><use transform="matrix(0.018,0,0,0.018,10.152,0)" xlink:href="#J"/><use transform="matrix(0.018,0,0,0.018,21.275999999999993,0)" xlink:href="#E"/><use transform="matrix(0.018,0,0,0.018,33.263999999999996,0)" xlink:href="#K"/><use transform="matrix(0.018,0,0,0.018,44.622,0)" xlink:href="#L"/><use transform="matrix(0.018,0,0,0.018,56.60999999999999,0)" xlink:href="#M"/><use transform="matrix(0.018,0,0,0.018,68.148,0)" xlink:href="#N"/><use transform="matrix(0.018,0,0,0.018,79.56000000000002,0)" xlink:href="#L"/></g><g id="w"><use transform="matrix(0.018,0,0,0.018,0,0)" xlink:href="#V"/><use transform="matrix(0.018,0,0,0.018,10.565999999999999,0)" xlink:href="#ac"/><use transform="matrix(0.018,0,0,0.018,20.718,0)" xlink:href="#J"/><use transform="matrix(0.018,0,0,0.018,31.841999999999995,0)" xlink:href="#L"/><use transform="matrix(0.018,0,0,0.018,43.83,0)" xlink:href="#K"/></g><g id="x"><use transform="matrix(0.018,0,0,0.018,0,0)" xlink:href="#W"/><use transform="matrix(0.018,0,0,0.018,11.069999999999999,0)" xlink:href="#L"/></g><g id="y"><use transform="matrix(0.018,0,0,0.018,0,0)" xlink:href="#ac"/><use transform="matrix(0.018,0,0,0.018,10.152,0)" xlink:href="#ab"/><use transform="matrix(0.018,0,0,0.018,24.605999999999998,0)" xlink:href="#J"/><use transform="matrix(0.018,0,0,0.018,35.73,0)" xlink:href="#H"/><use transform="matrix(0.018,0,0,0.018,48.672,0)" xlink:href="#P"/><use transform="matrix(0.018,0,0,0.018,60.102,0)" xlink:href="#ad"/><use transform="matrix(0.018,0,0,0.018,74.646,0)" xlink:href="#G"/><use transform="matrix(0.018,0,0,0.018,87.3,0)" xlink:href="#L"/></g><use transform="matrix(0.018,0,0,0.018,0,0)" xlink:href="#R" id="z"/><g id="A"><use transform="matrix(0.018,0,0,0.018,0,0)" xlink:href="#T"/><use transform="matrix(0.018,0,0,0.018,14.453999999999999,0)" xlink:href="#G"/><use transform="matrix(0.018,0,0,0.018,27.107999999999997,0)" xlink:href="#P"/></g><path d="M629-645c28 177 9 401 28 582 3 29-18 50-47 50-97 0-67-194-71-306-1-24-4-66-3-92 1-39-15-57-30-33-49 79-88 161-139 243-9 15-21 23-34 23-33 0-70-69-89-115-10-23-57-152-73-152-28 0-27 119-31 162-9 93-16 174-27 265-2 3-35 21-48 20-71-3-50-117-43-176 24-211 38-410 84-595 39-67 121 2 138 59 22 73 63 167 84 249 7 23 13 34 20 34 17 0 54-75 107-225 17-48 42-155 115-96 31 25 52 57 59 103" id="af"/><g id="B"><use transform="matrix(0.018,0,0,0.018,0,0)" xlink:href="#aa"/><use transform="matrix(0.018,0,0,0.018,9.953999999999999,0)" xlink:href="#L"/><use transform="matrix(0.018,0,0,0.018,21.941999999999997,0)" xlink:href="#J"/><use transform="matrix(0.018,0,0,0.018,33.066,0)" xlink:href="#af"/><use transform="matrix(0.018,0,0,0.018,45.162,0)" xlink:href="#L"/><use transform="matrix(0.018,0,0,0.018,57.15,0)" xlink:href="#J"/></g><g id="C"><use transform="matrix(0.018,0,0,0.018,0,0)" xlink:href="#M"/><use transform="matrix(0.018,0,0,0.018,11.537999999999998,0)" xlink:href="#ab"/><use transform="matrix(0.018,0,0,0.018,25.991999999999997,0)" xlink:href="#M"/></g></defs></g></svg>