<svg xmlns="http://www.w3.org/2000/svg" xmlns:xlink="http://www.w3.org/1999/xlink" xmlns:lucid="lucid" width="943" height="1053"><g transform="translate(-278.5 -298.5)" lucid:page-tab-id="0_0"><path d="M581.4 300c16.86 0 30.52 13.66 30.52 30.5 0 16.86-13.66 30.52-30.5 30.52H408.57c-16.85 0-30.5-13.66-30.5-30.5 0-16.86 13.65-30.52 30.5-30.52z" stroke="#e81313" stroke-width="3" fill="#fff"/><use xlink:href="#a" transform="matrix(1,0,0,1,383.07208630055675,305) translate(81.985 34.298)"/><path d="M496.58 364.02v74.17" stroke="#e81313" stroke-width="3" fill="none"/><path d="M498.06 364.06h-2.95v-1.54h2.96z" stroke="#e81313" stroke-width=".05" fill="#e81313"/><path d="M496.58 453.95l-4.63-14.26h9.27z" stroke="#e81313" stroke-width="3" fill="#e81313"/><path d="M680.7 538.67h71.4a12 12 0 0 0 12-12V422.4a12 12 0 0 0-12-12H515.78" stroke="#333" stroke-width="3" fill="none"/><path d="M680.75 540.15h-1.8l.12-.34.14-1.13-.13-1.14-.12-.33h1.8z" stroke="#333" stroke-width=".05" fill="#333"/><path d="M501.42 409.35l14.57-3.57-.7 9.24z" stroke="#333" stroke-width="3" fill="#333"/><use xlink:href="#b" transform="matrix(1,0,0,1,688.6238596160948,508.8228317063648) translate(0.004999999999999005 21.222)"/><path d="M500 1323v15a12 12 0 0 1-12 12H292a12 12 0 0 1-12-12V422.14a12 12 0 0 1 12-12h183.96" stroke="#e81313" stroke-width="3" fill="none"/><path d="M501.48 1323.04h-2.96v-1.54h2.96z" stroke="#e81313" stroke-width=".05" fill="#e81313"/><path d="M491.73 410.14l-14.27 4.63v-9.27z" stroke="#e81313" stroke-width="3" fill="#e81313"/><path d="M489.23 461.82a18.64 18.64 0 0 1 14.7 0l171.7 73.7a3.43 3.43 0 0 1 0 6.3l-171.7 73.7a18.64 18.64 0 0 1-14.7 0l-171.68-73.7a3.43 3.43 0 0 1 0-6.3z" stroke="#e81313" stroke-width="3" fill="#fff"/><use xlink:href="#c" transform="matrix(1,0,0,1,315.19833932364816,463.66692698164786) translate(50.646666666666675 84.10533333333333)"/><use xlink:href="#d" transform="matrix(1,0,0,1,315.19833932364816,463.66692698164786) translate(145.548 84.10533333333333)"/><use xlink:href="#e" transform="matrix(1,0,0,1,315.19833932364816,463.66692698164786) translate(300.108 84.10533333333333)"/><path d="M348.12 700.84a8 8 0 0 1 8-8h284a8 8 0 0 1 8 8v66a8 8 0 0 1-8 8h-284a8 8 0 0 1-8-8z" stroke="#e81313" stroke-width="3" fill="#fff"/><use xlink:href="#f" transform="matrix(1,0,0,1,353.1216969964322,697.8373682155409) translate(63.622425666666686 44.195535066666665)"/><use xlink:href="#g" transform="matrix(1,0,0,1,353.1216969964322,697.8373682155409) translate(154.00442193333333 44.195535066666665)"/><use xlink:href="#h" transform="matrix(1,0,0,1,353.1216969964322,697.8373682155409) translate(182.05768513333334 44.195535066666665)"/><path d="M496.6 620.03l1.1 50.7" stroke="#e81313" stroke-width="3" fill="none"/><path d="M496.58 618.53l1.48-.06.03 1.57-2.96.06-.03-1.63z" stroke="#e81313" stroke-width=".05" fill="#e81313"/><path d="M498.02 686.48l-4.94-14.16 9.27-.2z" stroke="#e81313" stroke-width="3" fill="#e81313"/><use xlink:href="#i" transform="matrix(1,0,0,1,504.78949916220375,615.2578340863414) translate(0.004999999999999005 21.222)"/><path d="M490.57 826.73a22.87 22.87 0 0 1 15.1 0l137.36 48.05a2.8 2.8 0 0 1 0 5.28L505.67 928.1a22.87 22.87 0 0 1-15.1 0L353.2 880.07a2.8 2.8 0 0 1 0-5.28z" stroke="#e81313" stroke-width="3" fill="#fff"/><use xlink:href="#j" transform="matrix(1,0,0,1,350.6609394798371,829.0879539242484) translate(93.70700000000001 56.798)"/><use xlink:href="#k" transform="matrix(1,0,0,1,350.6609394798371,829.0879539242484) translate(156.023 56.798)"/><use xlink:href="#l" transform="matrix(1,0,0,1,350.6609394798371,829.0879539242484) translate(168.47899999999998 56.798)"/><use xlink:href="#m" transform="matrix(1,0,0,1,350.6609394798371,829.0879539242484) translate(189.485 56.798)"/><path d="M498.12 777.84v25.5" stroke="#e81313" stroke-width="3" fill="none"/><path d="M499.6 777.88h-2.95v-1.54h2.95z" stroke="#e81313" stroke-width=".05" fill="#e81313"/><path d="M498.12 819.1l-4.63-14.27h9.26z" stroke="#e81313" stroke-width="3" fill="#e81313"/><path d="M498.38 932.38l1.33 285.5" stroke="#333" stroke-width="3" fill="none"/><path d="M499.85 932.4l-2.95.03v-1.58l1.22.04 1.64-.06h.1z" stroke="#333" stroke-width=".05" fill="#333"/><path d="M499.78 1233.65l-4.7-14.25 9.27-.04z" stroke="#333" stroke-width="3" fill="#333"/><path d="M815 1153v115a12 12 0 0 1-12 12H670.58" stroke="#e81313" stroke-width="3" fill="none"/><path d="M816.48 1153.04h-2.96v-1.54h2.96z" stroke="#e81313" stroke-width=".05" fill="#e81313"/><path d="M654.82 1280l14.26-4.63v9.27z" stroke="#e81313" stroke-width="3" fill="#e81313"/><path d="M807.44 922.6a23.2 23.2 0 0 1 15.12 0l129.88 44.8a2.76 2.76 0 0 1 0 5.2l-129.88 44.8a23.2 23.2 0 0 1-15.12 0l-129.88-44.8a2.76 2.76 0 0 1 0-5.2z" stroke="#e81313" stroke-width="3" fill="#fff"/><use xlink:href="#j" transform="matrix(1,0,0,1,675.0000000000002,925) translate(82.985 53.298)"/><use xlink:href="#k" transform="matrix(1,0,0,1,675.0000000000002,925) translate(145.301 53.298)"/><use xlink:href="#n" transform="matrix(1,0,0,1,675.0000000000002,925) translate(157.757 53.298)"/><use xlink:href="#m" transform="matrix(1,0,0,1,675.0000000000002,925) translate(185.207 53.298)"/><path d="M647.92 877.42H803a12 12 0 0 1 12 12v9.8" stroke="#e81313" stroke-width="3" fill="none"/><path d="M647.96 878.9h-1.84l.17-.43.12-1.05-.13-1.05-.18-.43h1.84z" stroke="#e81313" stroke-width=".05" fill="#e81313"/><path d="M815 915l-4.63-14.28h9.26z" stroke="#e81313" stroke-width="3" fill="#e81313"/><path d="M547 837a8 8 0 0 1 8-8h224a8 8 0 0 1 8 8v44a8 8 0 0 1-8 8H555a8 8 0 0 1-8-8z" fill="none"/><use xlink:href="#o" transform="matrix(1,0,0,1,547,829) translate(101.235 38.298)"/><path d="M410.58 928a8 8 0 0 1 8-8h224a8 8 0 0 1 8 8v44a8 8 0 0 1-8 8h-224a8 8 0 0 1-8-8z" fill="none"/><use xlink:href="#p" transform="matrix(1,0,0,1,410.5824545130274,920) translate(100.731 38.298)"/><path d="M351.54 1248a8 8 0 0 1 8-8h280.92a8 8 0 0 1 8 8v64a8 8 0 0 1-8 8H359.54a8 8 0 0 1-8-8z" stroke="#e81313" stroke-width="3" fill="#fff"/><use xlink:href="#q" transform="matrix(1,0,0,1,356.5385926279271,1245) translate(26.005000000000024 43.298)"/><use xlink:href="#r" transform="matrix(1,0,0,1,356.5385926279271,1245) translate(147.84700000000004 43.298)"/><use xlink:href="#s" transform="matrix(1,0,0,1,356.5385926279271,1245) translate(174.829 43.298)"/><path d="M815 1021.66v26.22" stroke="#e81313" stroke-width="3" fill="none"/><path d="M815 1020.16l1.48-.05v1.6h-2.96v-1.6z" stroke="#e81313" stroke-width=".05" fill="#e81313"/><path d="M815 1063.65l-4.63-14.27h9.26z" stroke="#e81313" stroke-width="3" fill="#e81313"/><path d="M960 788a8 8 0 0 1 8-8h244a8 8 0 0 1 8 8v64a8 8 0 0 1-8 8H968a8 8 0 0 1-8-8z" stroke="#333" stroke-width="3" fill="#fff"/><use xlink:href="#t" transform="matrix(1,0,0,1,965,785) translate(51.709 43.298)"/><use xlink:href="#u" transform="matrix(1,0,0,1,965,785) translate(142.321 43.298)"/><path d="M957.3 970H1078a12 12 0 0 0 12-12v-75.88" stroke="#333" stroke-width="3" fill="none"/><path d="M957.35 971.48h-1.84l.18-.43.13-1.05-.12-1.05-.17-.43h1.85z" stroke="#333" stroke-width=".05" fill="#333"/><path d="M1090 866.35l4.63 14.27h-9.27z" stroke="#333" stroke-width="3" fill="#333"/><path d="M840 928a8 8 0 0 1 8-8h224a8 8 0 0 1 8 8v44a8 8 0 0 1-8 8H848a8 8 0 0 1-8-8z" fill="none"/><g><use xlink:href="#v" transform="matrix(1,0,0,1,840,920) translate(101.235 38.298)"/></g><path d="M675 1078a8 8 0 0 1 8-8h264a8 8 0 0 1 8 8v64a8 8 0 0 1-8 8H683a8 8 0 0 1-8-8z" stroke="#e81313" stroke-width="3" fill="#fff"/><g><use xlink:href="#w" transform="matrix(1,0,0,1,680.0000000000002,1075) translate(90.68 43.298)"/><use xlink:href="#x" transform="matrix(1,0,0,1,680.0000000000002,1075) translate(164.66000000000003 43.298)"/></g><path d="M1090 777V426.46a12 12 0 0 0-12-12H784.72" stroke="#333" stroke-width="3" fill="none"/><path d="M1091.47 778.5h-2.94v-1.54h2.94z" stroke="#333" stroke-width=".05" fill="#333"/><path d="M768.95 414.46l14.27-4.64v9.27z" stroke="#333" stroke-width="3" fill="#333"/><path d="M740 1008a8 8 0 0 1 8-8h224a8 8 0 0 1 8 8v44a8 8 0 0 1-8 8H748a8 8 0 0 1-8-8z" fill="none"/><g><use xlink:href="#y" transform="matrix(1,0,0,1,740,1000) translate(100.731 38.298)"/></g><defs><path d="M19-91c0-222 71-428 58-668-3-62 121-44 170-33 118 27 229 50 293 128 44 53 63 97 63 217 0 165-189 328-383 400-36 13-62 45-108 45-66 0-93-23-93-89zm185-582c-30 151-43 322-58 489 5 39 27 28 60 14 129-54 276-147 276-304 0-155-106-203-278-199" id="z"/><path d="M200-621c86-36 205-38 320-43 17-2 34-6 53-13 25-50-14-102-50-120-105-15-221 22-318 37-49 22-126 13-155 55-12 101 7 262-12 371C15-202-37 19 166-4c120-14 222-47 358-47 61 0 128-2 134-62 3-35-15-67-42-76-93 13-205 8-286 31-46 13-96 23-151 16-29-4-39-25-30-58 2-52 0-110 16-152 11-29 60-22 94-30 65-16 139-26 220-15 42 6 65-40 42-74-13-19-34-26-64-31-88-15-182 2-264 12-22-4-15-32-15-46 0-32 0-66 14-85h8zm218-545c39-2 66 47 43 84-18 28-32 54-49 77l1-1c-23 43-45 97-73 132-21 27-86 23-80-23-6-36 68-166 96-218 19-35 41-51 62-51" id="A"/><path d="M68-174c-8-157-1-333-1-488 0-23-21-28-12-60 24-87 141-85 256-77 161 12 317 42 251 258-5 17-40 45-44 60 15 30 85 80 98 123 62 108 25 192-76 258C455-45 341-9 207-4 145-2 19-30 19-85c0-36 51-41 49-89zm137-510c-18 6-26 137-16 192 30 22 66 2 112-6 70-13 158-95 159-132 17-68-169-82-255-54zm-15 330c-15 57-2 155 5 215 6 4 6 12 18 11 101-5 211-32 267-82 52-46 58-91 12-140s-73-73-81-73c-39 14-121 48-173 54-15 2-34 14-48 15" id="B"/><path d="M106-737c41-53 131 12 108 86-42 139-71 285-71 455 0 88 72 66 143 48 49-12 128-35 183-63 38-19 36-69 44-119 17-114 31-247 31-354 0-57 26-85 79-85 37 0 55 27 55 81 0 190-34 397-59 573 4 31 20 93-13 105-8 10-30 7-65-8-16-20-33-38-51-54C397-48 305 0 205 0 79 0 5-43 13-176c13-196 50-391 93-561" id="C"/><path d="M593-790c58 0 99 54 77 117-5 13-15 16-35 14-70-7-152-3-229 7-31 20-24 81-26 127-4 138-16 277-16 422 0 32 4 70-21 83-26 36-88 7-103-20 1-182 10-346 21-521 2-27 11-81-18-84-73-7-138 11-206 3-20-18-39-18-32-51-3-78 74-91 145-91 129 0 251 6 369-8 25-3 49 2 74 2" id="D"/><g id="a"><use transform="matrix(0.018,0,0,0.018,0,0)" xlink:href="#z"/><use transform="matrix(0.018,0,0,0.018,10.872,0)" xlink:href="#A"/><use transform="matrix(0.018,0,0,0.018,22.86,0)" xlink:href="#B"/><use transform="matrix(0.018,0,0,0.018,34.434,0)" xlink:href="#C"/><use transform="matrix(0.018,0,0,0.018,47.087999999999994,0)" xlink:href="#D"/></g><path fill="#333" d="M24-128c0-158-18-313-5-472 6-74-11-192 62-191 78 1 88 68 113 130 59 143 102 191 174 297 50 73 81 109 92 109 8 0 12-3 13-9 24-163 3-322-12-477-6-63 62-76 101-37 65 64 45 212 54 340 10 141 7 304-15 413-8 15-20 23-37 23-76 0-203-132-244-200-33-54-79-109-116-169l4 4c-9-20-41-55-54-51-14 102-5 244 6 344 3 30-15 69-41 68-9 0-28-1-56-3-44-28-39-45-39-119" id="E"/><path fill="#333" d="M44-443c79-191 208-366 448-366 141 0 239 118 267 253 46 222-61 413-213 490-83 42-221 78-338 30-55-23-106-43-129-82-26-14-80-140-57-202 2-41 8-89 22-123zm103 115c1 136 75 191 208 191 130 0 180-50 241-135 38-53 55-111 55-169 0-109-73-236-179-227-143 12-260 151-311 271-9 24-14 47-14 69" id="F"/><g id="b"><use transform="matrix(0.018,0,0,0.018,0,0)" xlink:href="#E"/><use transform="matrix(0.018,0,0,0.018,11.537999999999998,0)" xlink:href="#F"/><use transform="matrix(0.018,0,0,0.018,26.604,0)" xlink:href="#E"/></g><path d="M68-174c-8-157-1-333-1-488 0-23-21-28-12-60 24-87 141-85 256-77 161 12 317 42 251 258-5 17-40 45-44 60 15 30 85 80 98 123 62 108 25 192-76 258C455-45 341-9 207-4 145-2 19-30 19-85c0-36 51-41 49-89zm137-510c-18 6-26 137-16 192 30 22 66 2 112-6 70-13 158-95 159-132 17-68-169-82-255-54zm-15 330c-15 57-2 155 5 215 6 4 6 12 18 11 101-5 211-32 267-82 52-46 58-91 12-140s-73-73-81-73c-39 14-121 48-173 54-15 2-34 14-48 15" id="G"/><path d="M44-443c79-191 208-366 448-366 141 0 239 118 267 253 46 222-61 413-213 490-83 42-221 78-338 30-55-23-106-43-129-82-26-14-80-140-57-202 2-41 8-89 22-123zm103 115c1 136 75 191 208 191 130 0 180-50 241-135 38-53 55-111 55-169 0-109-73-236-179-227-143 12-260 151-311 271-9 24-14 47-14 69" id="H"/><path d="M292-638c-67 2-113 14-176 21-81 9-112-68-58-103 132-46 304-52 470-66l65 5c50 52 43 111-50 111-45 0-75 15-112 18-18 16-19 83-24 152-7 108-21 214-33 322-5 46 36 20 67 20 54 0 81-10 139-16 43 25 50 62 23 110-151 29-311 50-490 79C58 24-8 22 3-44c14-83 161-45 224-90 22-16 24-69 29-107 17-126 33-258 36-397" id="I"/><path d="M371-533c189 0 256 55 239 237-9 91-67 138-157 205C374-33 301-7 236-7 155-7 13-82 18-160c3-44 62-73 96-38 43 44 152 73 218 29 77-51 166-125 156-169 2-44-67-63-119-62-47 1-108 1-155 3C87-393 13-429 1-531c11-87 101-150 165-187 90-52 160-96 290-87 34 2 118 78 115 115-3 35-23 38-55 45-15 4-26-4-33-24-37-64-116-1-164 12-41 11-154 77-154 113 0 15 14 22 41 22 45 0 127-11 165-11" id="J"/><path d="M24-128c0-158-18-313-5-472 6-74-11-192 62-191 78 1 88 68 113 130 59 143 102 191 174 297 50 73 81 109 92 109 8 0 12-3 13-9 24-163 3-322-12-477-6-63 62-76 101-37 65 64 45 212 54 340 10 141 7 304-15 413-8 15-20 23-37 23-76 0-203-132-244-200-33-54-79-109-116-169l4 4c-9-20-41-55-54-51-14 102-5 244 6 344 3 30-15 69-41 68-9 0-28-1-56-3-44-28-39-45-39-119" id="K"/><g id="c"><use transform="matrix(0.018666666666666668,0,0,0.018666666666666668,0,0)" xlink:href="#G"/><use transform="matrix(0.018666666666666668,0,0,0.018666666666666668,12.002666666666668,0)" xlink:href="#H"/><use transform="matrix(0.018666666666666668,0,0,0.018666666666666668,26.992000000000008,0)" xlink:href="#I"/><use transform="matrix(0.018666666666666668,0,0,0.018666666666666668,38.845333333333336,0)" xlink:href="#J"/><use transform="matrix(0.018666666666666668,0,0,0.018666666666666668,50.624,0)" xlink:href="#J"/><use transform="matrix(0.018666666666666668,0,0,0.018666666666666668,62.40266666666667,0)" xlink:href="#H"/><use transform="matrix(0.018666666666666668,0,0,0.018666666666666668,77.392,0)" xlink:href="#K"/></g><path d="M21-302C-7-136 9 24 196-12c147-28 263-93 386-142 57-23 26-120-26-120-111 32-240 115-378 126-13 1-22-26-25-45 30-174 59-350 88-524 10-62-86-124-120-61-39 73-49 196-69 277-19 77-22 145-31 199" id="L"/><path d="M330-158c82-22 193-18 286-31 38 11 58 81 24 113-25 24-71 25-116 25-135 0-238 34-358 47C61 7 4-52 15-159c12-113 37-213 32-340-2-59 2-121-2-178-2-44 35-62 81-61 104-31 222-52 345-64 68-7 103 34 111 94 2 12-3 22-9 31-33 14-62 15-103 16-100 2-196 10-270 40h-8c-18 23-11 79-15 106-1 13 5 22 16 25 82-10 176-25 264-12 44 7 78 26 71 72-7 49-76 30-125 30-78 0-138 22-210 29-24 1-35 28-36 52-2 41-10 83-8 126-19 84 122 51 181 35" id="M"/><path d="M521-275c40-33 108-24 108 34 0 49-75 103-210 183-80 47-247 72-323 10-66-54-95-101-82-218 12-106 41-136 91-224 55-96 145-209 240-278 32-23 68-33 107-33 86 2 108 61 107 158 0 55-15 82-44 82-55 1-25-116-79-110-132 15-229 223-291 334-48 86-31 226 81 218 122-9 217-92 295-156" id="N"/><g id="d"><use transform="matrix(0.018666666666666668,0,0,0.018666666666666668,0,0)" xlink:href="#J"/><use transform="matrix(0.018666666666666668,0,0,0.018666666666666668,11.778666666666668,0)" xlink:href="#A"/><use transform="matrix(0.018666666666666668,0,0,0.018666666666666668,24.21066666666667,0)" xlink:href="#L"/><use transform="matrix(0.018666666666666668,0,0,0.018666666666666668,35.69066666666667,0)" xlink:href="#M"/><use transform="matrix(0.018666666666666668,0,0,0.018666666666666668,48.12266666666667,0)" xlink:href="#N"/><use transform="matrix(0.018666666666666668,0,0,0.018666666666666668,59.95733333333334,0)" xlink:href="#D"/><use transform="matrix(0.018666666666666668,0,0,0.018666666666666668,73.37866666666667,0)" xlink:href="#I"/><use transform="matrix(0.018666666666666668,0,0,0.018666666666666668,85.23200000000001,0)" xlink:href="#H"/><use transform="matrix(0.018666666666666668,0,0,0.018666666666666668,100.22133333333335,0)" xlink:href="#K"/><use transform="matrix(0.018666666666666668,0,0,0.018666666666666668,112.18666666666668,0)" xlink:href="#K"/><use transform="matrix(0.018666666666666668,0,0,0.018666666666666668,124.15200000000002,0)" xlink:href="#A"/><use transform="matrix(0.018666666666666668,0,0,0.018666666666666668,136.584,0)" xlink:href="#M"/></g><path d="M103-360c0-112 97-112 179-128 97-18 242-75 249-136 6-48-42-75-151-71-112 4-194 15-276 54-32 15-101 31-94-24 35-105 323-159 505-131 75 11 164 108 120 200-57 118-164 168-297 220-46 18-100 9-130 40-14 46-42 100-66 94-26 0-39-39-39-118zm112 214c60 54-29 135-88 135-48 0-65-33-51-98 18-31 37-56 89-54 19 0 36 5 50 17" id="O"/><use transform="matrix(0.018666666666666668,0,0,0.018666666666666668,0,0)" xlink:href="#O" id="e"/><path d="M103-24C79 10-2-14 8-59c42-186 129-353 193-524 23-62 63-135 99-197 39-38 106-10 109 47 27 100 51 209 81 307 8 25 72 24 72 63 0 44-26 46-37 75 12 83 46 156 55 243 7 63-106 47-114 11-13-58-36-170-57-231-3-4-7-8-9-14-69 4-134 40-198 52-53 21-53 108-81 160-4 16-8 29-18 43zm215-551c-16 18-92 195-73 208 46 2 100-12 123-31-5-30-32-162-38-171-2-3-6-5-12-6" id="P"/><path d="M39-49c-7-93 9-204-6-289-18-30-12-41 1-77 37-27 19-97 25-162 2-23-27-37-49-40-11-18-14-56 0-71 17-39 273-99 376-109 72-7 163-32 165 45 1 65-62 51-115 66-63 18-176 24-229 55-41 23-20 107-25 176 83-2 166-25 259-33 74-6 91 70 44 97-80 23-228 35-304 57-18 6-27 18-27 35-9 45 6 274-42 299-35 2-92-5-73-49" id="Q"/><path d="M107-780c100 15 51 176 51 272 0 29 23 25 56 24 33-11 175 4 171-42 9-67 4-153 14-224 12-14 39-57 70-50 51 0 74 34 69 103L490-47c-6 28-25 57-57 56-118-5-54-182-54-299 0-34 3-75-15-85-65 6-127 12-191 19-52 29-23 162-29 239C135-7 87 19 22-30 10-48 7-67 13-88c-16-100 8-215 8-322 0-127-9-364 86-370" id="R"/><path d="M608-642l-20 77c-36 56-69 94-113 138-49 48-58 40-29 81 33 46 69 89 97 147 44 89 52 141 40 147-3 38-20 49-63 52-68 5-97-106-129-160-40-68-56-162-144-164-53-1-27 78-45 121-7 56-12 123-28 170C157-4 113 24 66-1 46-11 40-39 49-87c19-111 19-139 19-313 0-144 1-187-40-242-27-37-13-94 26-108 103-36 250-59 389-41 63 8 182 85 165 149zm-140 11c-10-39-42-58-96-57-53 12-154 21-179 43-5 9-8 31-8 65 0 151 19 135 127 94 94-36 148-79 156-145" id="S"/><g id="f"><use transform="matrix(0.01777773333333333,0,0,0.01777773333333333,0,0)" xlink:href="#P"/><use transform="matrix(0.01777773333333333,0,0,0.01777773333333333,10.435529466666665,0)" xlink:href="#Q"/><use transform="matrix(0.01777773333333333,0,0,0.01777773333333333,20.266616,0)" xlink:href="#Q"/><use transform="matrix(0.01777773333333333,0,0,0.01777773333333333,30.097702533333333,0)" xlink:href="#I"/><use transform="matrix(0.01777773333333333,0,0,0.01777773333333333,41.3865632,0)" xlink:href="#N"/><use transform="matrix(0.01777773333333333,0,0,0.01777773333333333,52.65764613333333,0)" xlink:href="#R"/><use transform="matrix(0.01777773333333333,0,0,0.01777773333333333,62.27539986666666,0)" xlink:href="#M"/><use transform="matrix(0.01777773333333333,0,0,0.01777773333333333,74.11537026666666,0)" xlink:href="#S"/></g><g id="g"><use transform="matrix(0.01777773333333333,0,0,0.01777773333333333,0,0)" xlink:href="#L"/><use transform="matrix(0.01777773333333333,0,0,0.01777773333333333,10.933305999999998,0)" xlink:href="#M"/></g><path d="M23-677c-68-88 127-122 212-122 113 0 253 24 291 82 92 144-48 310-153 365-52 27-102 48-161 69-56 20-53 15-58 80-4 49-8 103-13 153-3 31-19 46-43 46-44 0-65-28-63-81 5-162 8-330 16-486 3-53-4-75-28-106zm415 73c0-44-44-66-132-66-78 0-124 8-135 26-10 16-14 89-14 218 0 44 22 39 57 25 83-34 224-115 224-203" id="T"/><path d="M635-31c28-53 7-115-31-143-7-19-67-63-88-82-39-36-80-78-117-115 1-16 41-65 118-148l-10 11c30-36 53-67 85-95 54-48 78-89 78-117s-20-70-52-70c-36 0-116 78-245 230-22 26-38 59-67 71-30 12-85-104-102-151-13-36-72-158-75-157-34-47-96-35-89 35 8 88 69 162 101 236 14 20 74 122 77 140-20 61-139 209-182 265-18 23-24 44-24 60C11-36 45 1 69 0c45-2 96-97 124-134 67-89 109-132 124-131 48 2 103 85 141 115 20 16 39 33 56 52 49 58 88 82 121 67" id="U"/><g id="h"><use transform="matrix(0.01777773333333333,0,0,0.01777773333333333,0,0)" xlink:href="#T"/><use transform="matrix(0.01777773333333333,0,0,0.01777773333333333,10.026641599999998,0)" xlink:href="#S"/><use transform="matrix(0.01777773333333333,0,0,0.01777773333333333,21.013280799999997,0)" xlink:href="#I"/><use transform="matrix(0.01777773333333333,0,0,0.01777773333333333,32.30214146666666,0)" xlink:href="#U"/></g><path fill="#e81313" d="M44-443c79-191 208-366 448-366 141 0 239 118 267 253 46 222-61 413-213 490-83 42-221 78-338 30-55-23-106-43-129-82-26-14-80-140-57-202 2-41 8-89 22-123zm103 115c1 136 75 191 208 191 130 0 180-50 241-135 38-53 55-111 55-169 0-109-73-236-179-227-143 12-260 151-311 271-9 24-14 47-14 69" id="V"/><path fill="#e81313" d="M109-754c29-56 120 5 113 55-24 164-73 311-76 498 0 44 17 66 52 66 44 0 193-39 283-82 16-8 27-24 32-45 27-114 44-316 44-439 0-57 27-86 82-86 38 0 57 27 57 82 0 195-35 406-61 587 5 33 20 94-14 106-8 12-30 10-67-7-15-20-33-39-52-56C437-54 255 2 210 0 80-5 5-44 13-182c11-186 48-366 83-531 3-12 5-27 13-41" id="W"/><path fill="#e81313" d="M292-638c-67 2-113 14-176 21-81 9-112-68-58-103 132-46 304-52 470-66l65 5c50 52 43 111-50 111-45 0-75 15-112 18-18 16-19 83-24 152-7 108-21 214-33 322-5 46 36 20 67 20 54 0 81-10 139-16 43 25 50 62 23 110-151 29-311 50-490 79C58 24-8 22 3-44c14-83 161-45 224-90 22-16 24-69 29-107 17-126 33-258 36-397" id="X"/><g id="i"><use transform="matrix(0.018,0,0,0.018,0,0)" xlink:href="#V"/><use transform="matrix(0.018,0,0,0.018,14.453999999999999,0)" xlink:href="#W"/><use transform="matrix(0.018,0,0,0.018,27.144,0)" xlink:href="#X"/></g><path d="M23-677c-68-88 127-122 212-122 113 0 253 24 291 82 92 144-48 310-153 365-52 27-102 48-161 69-56 20-53 15-58 80-4 49-8 103-13 153-3 31-19 46-43 46-44 0-65-28-63-81 5-162 8-330 16-486 3-53-4-75-28-106zm415 73c0-44-44-66-132-66-78 0-124 8-135 26-10 16-14 89-14 218 0 44 22 39 57 25 83-34 224-115 224-203" id="Y"/><path d="M200-621c86-36 205-38 320-43 17-2 34-6 53-13 25-50-14-102-50-120-105-15-221 22-318 37-49 22-126 13-155 55-12 101 7 262-12 371C15-202-37 19 166-4c120-14 222-47 358-47 61 0 128-2 134-62 3-35-15-67-42-76-93 13-205 8-286 31-46 13-96 23-151 16-29-4-39-25-30-58 2-52 0-110 16-152 11-29 60-22 94-30 65-16 139-26 220-15 42 6 65-40 42-74-13-19-34-26-64-31-88-15-182 2-264 12-22-4-15-32-15-46 0-32 0-66 14-85h8zm44-543c-39-2-66 47-43 84 18 28 32 54 49 77l-1-1c23 43 45 97 73 132 21 27 86 23 80-23 6-36-67-166-96-218-19-35-42-51-62-51" id="Z"/><g id="j"><use transform="matrix(0.018,0,0,0.018,0,0)" xlink:href="#Y"/><use transform="matrix(0.018,0,0,0.018,10.152,0)" xlink:href="#I"/><use transform="matrix(0.018,0,0,0.018,21.582,0)" xlink:href="#Z"/><use transform="matrix(0.018,0,0,0.018,33.57,0)" xlink:href="#N"/><use transform="matrix(0.018,0,0,0.018,44.982,0)" xlink:href="#M"/></g><path d="M194-490c84-10 187-18 187 71 0 54-54 28-96 45-79 1-166 17-240 6-17-14-55-67-20-89 39-24 120-27 169-33zm-61 193c94 0 235-47 235 61 0 66-66 50-124 57-28 4-110 7-132 8-50 1-113-51-81-101 17-27 58-14 102-25" id="aa"/><use transform="matrix(0.018,0,0,0.018,0,0)" xlink:href="#aa" id="k"/><path d="M49-77C44-40 70-4 106-4c52 0 58-115 69-176 33-185 88-339 106-531 5-55-37-120-88-84-58 41-108 94-156 139-9 8-27 43-27 58-1 28 35 54 60 54 15-1 48-23 43 15" id="ab"/><path d="M181-244c11 100 47 181 156 183 67 0 108-36 117-94l89 8C521-50 454 11 337 11 173 11 109-97 93-245H10l19-64h58c-3-28 0-53 0-81H9l19-61h64c-25-258 392-347 450-92l-92 8c-3-103-164-122-222-53-31 31-42 75-47 136h217l-19 61H176v81h222l-19 64H182" id="ac"/><g id="l"><use transform="matrix(0.018,0,0,0.018,0,0)" xlink:href="#ab"/><use transform="matrix(0.018,0,0,0.018,5.093999999999999,0)" xlink:href="#ac"/></g><use transform="matrix(0.018,0,0,0.018,0,0)" xlink:href="#O" id="m"/><path d="M489-785c107 0 154 111 116 214-29 79-213 255-300 345-26 27-38 39-16 63 95 2 204-5 287 7 22 4 49 51 49 77 0 63-95 31-141 31H320C244-52 124 2 73 14 50 19-1-26 3-53c6-51 111-140 150-182 94-98 182-189 275-285 55-57 80-102 80-129 1-31-28-24-56-21-120 11-265 81-296 145-13 26-15 67-56 65s-51-21-51-66c0-144 158-200 287-235 61-16 112-24 153-24" id="ad"/><g id="n"><use transform="matrix(0.018,0,0,0.018,0,0)" xlink:href="#ad"/><use transform="matrix(0.018,0,0,0.018,11.537999999999998,0)" xlink:href="#ac"/></g><path fill="#e81313" d="M24-128c0-158-18-313-5-472 6-74-11-192 62-191 78 1 88 68 113 130 59 143 102 191 174 297 50 73 81 109 92 109 8 0 12-3 13-9 24-163 3-322-12-477-6-63 62-76 101-37 65 64 45 212 54 340 10 141 7 304-15 413-8 15-20 23-37 23-76 0-203-132-244-200-33-54-79-109-116-169l4 4c-9-20-41-55-54-51-14 102-5 244 6 344 3 30-15 69-41 68-9 0-28-1-56-3-44-28-39-45-39-119" id="ae"/><path fill="#e81313" d="M44-443c79-191 208-366 448-366 141 0 239 118 267 253 46 222-61 413-213 490-83 42-221 78-338 30-55-23-106-43-129-82-26-14-80-140-57-202 2-41 8-89 22-123zm103 115c1 136 75 191 208 191 130 0 180-50 241-135 38-53 55-111 55-169 0-109-73-236-179-227-143 12-260 151-311 271-9 24-14 47-14 69" id="af"/><path fill="#e81313" d="M24-128c0-158-18-313-5-472 6-74-11-192 62-191 78 1 88 68 113 130 59 143 102 191 174 297 50 73 81 109 92 109 8 0 12-3 13-9 24-163 3-322-12-477-6-63 62-76 101-37 65 64 45 212 54 340 10 141 7 304-15 413-8 15-20 23-37 23-76 0-203-132-244-200-33-54-79-109-116-169l4 4c-9-20-41-55-54-51-14 102-5 244 6 344 3 30-15 69-41 68-9 0-28-1-56-3-44-28-39-45-39-119" id="ag"/><g id="o"><use transform="matrix(0.018,0,0,0.018,0,0)" xlink:href="#ae"/><use transform="matrix(0.018,0,0,0.018,11.537999999999998,0)" xlink:href="#af"/><use transform="matrix(0.018,0,0,0.018,25.991999999999997,0)" xlink:href="#ag"/></g><path fill="#333" d="M44-443c79-191 208-366 448-366 141 0 239 118 267 253 46 222-61 413-213 490-83 42-221 78-338 30-55-23-106-43-129-82-26-14-80-140-57-202 2-41 8-89 22-123zm103 115c1 136 75 191 208 191 130 0 180-50 241-135 38-53 55-111 55-169 0-109-73-236-179-227-143 12-260 151-311 271-9 24-14 47-14 69" id="ah"/><path fill="#333" d="M106-737c41-53 131 12 108 86-42 139-71 285-71 455 0 88 72 66 143 48 49-12 128-35 183-63 38-19 36-69 44-119 17-114 31-247 31-354 0-57 26-85 79-85 37 0 55 27 55 81 0 190-34 397-59 573 4 31 20 93-13 105-8 10-30 7-65-8-16-20-33-38-51-54C397-48 305 0 205 0 79 0 5-43 13-176c13-196 50-391 93-561" id="ai"/><path fill="#333" d="M292-638c-67 2-113 14-176 21-81 9-112-68-58-103 132-46 304-52 470-66l65 5c50 52 43 111-50 111-45 0-75 15-112 18-18 16-19 83-24 152-7 108-21 214-33 322-5 46 36 20 67 20 54 0 81-10 139-16 43 25 50 62 23 110-151 29-311 50-490 79C58 24-8 22 3-44c14-83 161-45 224-90 22-16 24-69 29-107 17-126 33-258 36-397" id="aj"/><g id="p"><use transform="matrix(0.018,0,0,0.018,0,0)" xlink:href="#ah"/><use transform="matrix(0.018,0,0,0.018,14.453999999999999,0)" xlink:href="#ai"/><use transform="matrix(0.018,0,0,0.018,27.107999999999997,0)" xlink:href="#aj"/></g><g id="q"><use transform="matrix(0.018,0,0,0.018,0,0)" xlink:href="#z"/><use transform="matrix(0.018,0,0,0.018,10.872,0)" xlink:href="#I"/><use transform="matrix(0.018,0,0,0.018,22.302,0)" xlink:href="#J"/><use transform="matrix(0.018,0,0,0.018,33.66,0)" xlink:href="#D"/><use transform="matrix(0.018,0,0,0.018,46.602,0)" xlink:href="#S"/><use transform="matrix(0.018,0,0,0.018,57.726,0)" xlink:href="#I"/><use transform="matrix(0.018,0,0,0.018,69.156,0)" xlink:href="#B"/><use transform="matrix(0.018,0,0,0.018,80.73,0)" xlink:href="#C"/><use transform="matrix(0.018,0,0,0.018,93.38399999999999,0)" xlink:href="#M"/><use transform="matrix(0.018,0,0,0.018,105.37199999999999,0)" xlink:href="#S"/></g><path d="M103-24C79 10-2-14 8-59c42-186 129-353 193-524 23-62 63-135 99-197 39-38 106-10 109 47 27 100 51 209 81 307 8 25 72 24 72 63 0 44-26 46-37 75 12 83 46 156 55 243 7 63-106 47-114 11-13-58-36-170-57-231-3-4-7-8-9-14-69 4-134 40-198 52-53 21-53 108-81 160-4 16-8 29-18 43zm215-551c-16 18-92 195-73 208 46 2 100-12 123-31-5-30-32-162-38-171-2-3-6-5-12-6" id="ak"/><g id="r"><use transform="matrix(0.018,0,0,0.018,0,0)" xlink:href="#L"/><use transform="matrix(0.018,0,0,0.018,11.069999999999999,0)" xlink:href="#ak"/></g><g id="s"><use transform="matrix(0.018,0,0,0.018,0,0)" xlink:href="#B"/><use transform="matrix(0.018,0,0,0.018,11.574,0)" xlink:href="#H"/><use transform="matrix(0.018,0,0,0.018,26.028,0)" xlink:href="#I"/><use transform="matrix(0.018,0,0,0.018,37.458,0)" xlink:href="#J"/><use transform="matrix(0.018,0,0,0.018,48.815999999999995,0)" xlink:href="#J"/><use transform="matrix(0.018,0,0,0.018,60.17399999999999,0)" xlink:href="#H"/><use transform="matrix(0.018,0,0,0.018,74.62799999999997,0)" xlink:href="#K"/></g><path d="M159-751c124-55 327-50 495-50 79 0 118 21 118 62 0 33-11 54-30 67-34-9-133-18-133 25 0 94 29 169 29 256 0 132-9 209-47 289-37 78-166 115-275 84C238-40 2-165 2-253c0-31 18-66 44-66 74 0 115 89 173 119 38 20 106 49 152 49 150 0 143-145 135-286-3-44-31-193-41-198-10-16-28-24-53-24-80-1-164 20-232 25-31 2-63-17-63-46 0-32 13-58 42-71" id="al"/><g id="t"><use transform="matrix(0.018,0,0,0.018,0,0)" xlink:href="#S"/><use transform="matrix(0.018,0,0,0.018,11.123999999999999,0)" xlink:href="#M"/><use transform="matrix(0.018,0,0,0.018,23.112,0)" xlink:href="#al"/><use transform="matrix(0.018,0,0,0.018,37.224,0)" xlink:href="#M"/><use transform="matrix(0.018,0,0,0.018,49.211999999999996,0)" xlink:href="#D"/><use transform="matrix(0.018,0,0,0.018,62.153999999999996,0)" xlink:href="#M"/><use transform="matrix(0.018,0,0,0.018,74.142,0)" xlink:href="#S"/></g><g id="u"><use transform="matrix(0.018,0,0,0.018,0,0)" xlink:href="#T"/><use transform="matrix(0.018,0,0,0.018,10.152,0)" xlink:href="#I"/><use transform="matrix(0.018,0,0,0.018,21.582,0)" xlink:href="#Z"/><use transform="matrix(0.018,0,0,0.018,33.57,0)" xlink:href="#N"/><use transform="matrix(0.018,0,0,0.018,44.982,0)" xlink:href="#M"/></g><path d="M24-128c0-158-18-313-5-472 6-74-11-192 62-191 78 1 88 68 113 130 59 143 102 191 174 297 50 73 81 109 92 109 8 0 12-3 13-9 24-163 3-322-12-477-6-63 62-76 101-37 65 64 45 212 54 340 10 141 7 304-15 413-8 15-20 23-37 23-76 0-203-132-244-200-33-54-79-109-116-169l4 4c-9-20-41-55-54-51-14 102-5 244 6 344 3 30-15 69-41 68-9 0-28-1-56-3-44-28-39-45-39-119" id="am"/><g id="v"><use transform="matrix(0.018,0,0,0.018,0,0)" xlink:href="#am"/><use transform="matrix(0.018,0,0,0.018,11.537999999999998,0)" xlink:href="#H"/><use transform="matrix(0.018,0,0,0.018,25.991999999999997,0)" xlink:href="#K"/></g><path d="M19-91c0-222 71-428 58-668-3-62 121-44 170-33 118 27 229 50 293 128 44 53 63 97 63 217 0 165-189 328-383 400-36 13-62 45-108 45-66 0-93-23-93-89zm185-582c-30 151-43 322-58 489 5 39 27 28 60 14 129-54 276-147 276-304 0-155-106-203-278-199" id="an"/><g id="w"><use transform="matrix(0.018,0,0,0.018,0,0)" xlink:href="#S"/><use transform="matrix(0.018,0,0,0.018,11.123999999999999,0)" xlink:href="#M"/><use transform="matrix(0.018,0,0,0.018,23.112,0)" xlink:href="#K"/><use transform="matrix(0.018,0,0,0.018,34.65,0)" xlink:href="#an"/><use transform="matrix(0.018,0,0,0.018,45.522,0)" xlink:href="#S"/><use transform="matrix(0.018,0,0,0.018,56.646,0)" xlink:href="#M"/></g><g id="x"><use transform="matrix(0.018,0,0,0.018,0,0)" xlink:href="#ab"/><use transform="matrix(0.018,0,0,0.018,5.093999999999999,0)" xlink:href="#ac"/></g><g id="y"><use transform="matrix(0.018,0,0,0.018,0,0)" xlink:href="#H"/><use transform="matrix(0.018,0,0,0.018,14.453999999999999,0)" xlink:href="#C"/><use transform="matrix(0.018,0,0,0.018,27.107999999999997,0)" xlink:href="#I"/></g></defs></g></svg>